<?xml version="1.0" standalone="no"?>
<!DOCTYPE svg PUBLIC "-//W3C//DTD SVG 20010904//EN"
 "http://www.w3.org/TR/2001/REC-SVG-20010904/DTD/svg10.dtd">
<svg version="1.0" xmlns="http://www.w3.org/2000/svg"
 width="1024.000000pt" height="1024.000000pt" viewBox="0 0 1024.000000 1024.000000"
 preserveAspectRatio="xMidYMid meet">

<g transform="translate(0.000000,1024.000000) scale(0.100000,-0.100000)"
fill="#000000" stroke="none">
<path d="M4470 7619 c-30 -5 -264 -79 -520 -163 -256 -85 -719 -238 -1030
-339 -1236 -406 -1366 -449 -1395 -466 -16 -9 -40 -32 -53 -51 l-23 -34 3
-825 3 -826 23 -70 c48 -144 148 -290 267 -388 102 -86 380 -265 1015 -657
118 -73 242 -149 275 -169 213 -132 342 -212 500 -308 1260 -769 1355 -822
1519 -852 123 -23 234 -4 371 62 76 37 1147 603 1315 695 62 33 945 504 1460
777 350 185 426 230 473 274 43 39 76 112 86 188 5 37 20 435 32 884 22 795
23 817 5 864 -27 69 -75 117 -159 158 -39 19 -238 87 -442 152 -203 64 -503
159 -665 210 -409 130 -766 242 -1240 390 -223 70 -481 151 -575 180 -93 30
-269 84 -390 120 -121 37 -276 85 -345 107 -292 92 -382 108 -510 87z m275
-212 c70 -22 470 -146 1210 -377 203 -63 1201 -378 1445 -455 58 -18 242 -77
410 -129 562 -178 690 -220 690 -226 0 -8 16 -1 -675 -274 -657 -259 -2183
-872 -2504 -1005 -41 -17 -77 -31 -81 -31 -4 0 -227 108 -496 241 -412 203
-1190 579 -1569 759 -55 26 -176 85 -270 130 -93 45 -242 116 -330 157 -88 42
-223 106 -300 142 -77 37 -208 98 -292 136 -84 39 -152 73 -153 76 0 3 15 10
33 16 161 51 1797 589 2172 714 l480 160 75 -5 c41 -2 111 -16 155 -29z
m-2190 -1407 c33 -15 230 -109 437 -209 208 -99 410 -196 450 -215 132 -61
846 -409 1286 -626 l432 -213 0 -196 c0 -308 -21 -1886 -26 -1890 -2 -2 -30 1
-61 8 -119 23 -211 76 -1453 831 -129 79 -284 172 -345 208 -119 71 -410 250
-595 367 -63 39 -196 123 -295 185 -488 308 -613 405 -682 535 -64 122 -62 92
-63 902 -1 406 -1 741 -1 745 1 3 193 -86 429 -199 235 -113 454 -218 487
-233z m6056 -367 c-29 -940 -38 -1136 -54 -1174 -20 -47 -60 -78 -187 -146
-58 -30 -193 -101 -301 -158 -108 -57 -357 -189 -555 -293 -197 -104 -390
-207 -429 -227 -38 -21 -214 -115 -390 -210 -1237 -666 -1348 -725 -1361 -725
-3 0 -4 138 0 308 3 169 8 537 11 817 3 281 8 603 11 716 l6 207 177 71 c269
108 643 259 876 354 1119 454 2199 885 2204 881 2 -2 -1 -192 -8 -421z"/>
<path d="M5607 7002 c-30 -33 -21 -77 24 -122 22 -22 47 -40 55 -40 29 0 12
-18 -35 -39 -27 -11 -54 -21 -59 -21 -6 0 -26 16 -45 35 -40 40 -55 43 -87 17
l-22 -18 36 -43 c23 -28 36 -54 37 -74 1 -18 2 -54 3 -82 1 -45 3 -50 26 -53
44 -5 64 19 65 79 0 52 2 55 35 70 210 100 225 111 202 145 -4 6 -32 19 -62
29 -69 24 -90 41 -90 75 0 29 -27 60 -52 60 -8 0 -22 -8 -31 -18z"/>
<path d="M5060 6821 l-24 -19 74 -77 c73 -75 131 -115 167 -115 27 0 123 47
123 60 0 24 -21 49 -64 74 -54 31 -80 26 -71 -14 6 -30 -15 -47 -39 -33 -18
11 -116 124 -116 135 0 14 -24 9 -50 -11z"/>
<path d="M5053 6674 c-3 -8 4 -25 16 -38 22 -23 28 -46 12 -46 -5 0 -33 14
-60 32 -56 34 -73 32 -47 -6 9 -14 16 -30 16 -36 0 -21 -30 -9 -52 20 -24 33
-39 37 -58 15 -10 -12 -9 -20 4 -40 37 -56 -17 -61 -69 -7 -34 35 -36 36 -50
18 -13 -17 -12 -22 5 -46 25 -35 25 -43 1 -64 -24 -22 -55 -14 -96 25 -16 15
-46 35 -65 43 -33 13 -38 13 -60 -5 l-25 -19 26 -23 c14 -12 35 -27 45 -33 25
-15 14 -25 -36 -34 -36 -7 -44 -4 -71 21 -33 30 -76 38 -97 17 -19 -19 -15
-25 38 -60 27 -18 52 -39 55 -47 8 -20 -18 -55 -59 -81 -42 -25 -43 -29 -16
-58 23 -25 29 -26 62 -13 27 10 92 97 93 124 0 15 12 23 45 32 25 7 53 15 63
20 26 11 21 -17 -8 -45 -41 -38 -28 -80 25 -80 22 0 35 13 73 73 78 122 95
137 152 137 31 0 69 9 100 23 28 13 67 26 89 30 48 8 86 32 86 55 0 27 -95
112 -125 112 -3 0 -8 -7 -12 -16z"/>
<path d="M4707 6673 c-13 -12 -7 -40 12 -57 36 -33 83 18 49 52 -13 13 -50 16
-61 5z"/>
<path d="M4615 6640 c-9 -14 22 -60 39 -60 7 0 19 7 26 15 10 13 10 19 -5 35
-20 22 -50 26 -60 10z"/>
<path d="M5969 6595 c-19 -7 -54 -22 -78 -34 l-42 -22 3 -130 3 -130 -39 43
c-172 188 -152 176 -225 139 -34 -17 -61 -37 -61 -44 0 -11 369 -438 450 -521
l38 -38 57 21 c108 40 108 29 -5 150 -103 111 -123 143 -72 117 86 -44 350
-146 368 -142 11 3 55 21 98 41 55 25 77 40 74 51 -3 16 -101 57 -358 148
l-135 48 4 114 c2 63 0 135 -4 159 -7 50 -15 53 -76 30z"/>
<path d="M5393 6574 l-26 -26 24 -19 c31 -24 35 -23 62 2 21 19 21 21 5 33
-10 7 -18 18 -18 25 0 19 -19 12 -47 -15z"/>
<path d="M4003 6447 c-30 -13 -29 -30 2 -47 22 -12 28 -12 42 3 16 16 16 18
-2 36 -16 15 -25 17 -42 8z"/>
<path d="M4222 6428 c-9 -9 -7 -17 10 -35 17 -18 19 -25 8 -38 -9 -11 -24 -13
-64 -9 -41 5 -55 3 -65 -10 -12 -15 -9 -21 23 -51 41 -37 42 -54 5 -107 -25
-35 -24 -46 6 -60 21 -9 28 -8 45 7 33 30 63 85 62 115 0 22 7 32 39 49 58 33
61 63 13 112 -39 40 -61 48 -82 27z"/>
<path d="M5190 6323 c-49 -18 -142 -68 -146 -78 -5 -11 201 -556 232 -617 8
-16 21 -28 29 -28 17 0 146 49 158 60 5 4 -7 39 -27 77 l-35 70 98 42 c54 22
103 41 110 41 7 0 49 -27 92 -60 l80 -60 72 32 c88 39 84 36 65 51 -144 118
-673 478 -700 476 -7 0 -20 -3 -28 -6z m176 -268 l98 -64 -38 -16 c-86 -36
-88 -35 -126 51 -45 99 -43 94 -36 94 3 0 49 -29 102 -65z"/>
<path d="M3865 6303 c-30 -7 -45 -32 -45 -74 0 -71 83 -137 156 -123 44 8 64
37 64 92 0 35 -6 49 -29 73 -16 16 -38 29 -49 29 -11 0 -32 2 -48 4 -16 2 -38
2 -49 -1z m96 -79 c15 -19 2 -47 -25 -52 -20 -4 -56 25 -56 44 0 26 61 32 81
8z"/>
<path d="M4331 6229 c-22 -9 -22 -11 -8 -32 16 -25 35 -31 56 -18 12 8 13 14
3 35 -13 28 -16 29 -51 15z"/>
<path d="M4651 6109 c-65 -23 -238 -106 -246 -118 -8 -15 446 -541 468 -541
23 0 137 53 137 64 0 6 -32 46 -71 88 -39 43 -68 82 -65 86 3 5 27 15 53 22
32 9 63 29 96 61 l49 48 -4 64 c-3 50 -10 74 -35 113 -73 114 -241 163 -382
113z m194 -160 c29 -26 35 -38 33 -63 -3 -26 -11 -35 -57 -59 l-55 -27 -34 32
c-18 18 -47 50 -64 71 l-30 37 44 20 c66 30 120 26 163 -11z"/>
<path d="M2738 5689 c-148 -16 -261 -71 -373 -182 -64 -64 -90 -99 -119 -158
-94 -197 -102 -424 -25 -650 112 -329 421 -618 751 -706 88 -23 253 -21 339 4
364 107 539 513 407 941 -89 290 -334 566 -613 693 -113 51 -243 72 -367 58z
m257 -214 c205 -69 384 -234 489 -449 65 -132 86 -208 93 -336 14 -264 -128
-472 -360 -525 -266 -61 -619 156 -785 482 -50 97 -74 194 -79 318 -8 185 28
294 133 401 121 125 330 169 509 109z"/>
<path d="M2826 5185 c-97 -24 -126 -46 -126 -94 0 -49 30 -117 76 -171 54 -63
67 -87 60 -106 -11 -29 -133 -6 -182 34 -45 37 -57 68 -50 126 6 47 4 58 -13
75 -72 72 -161 -4 -148 -125 13 -127 120 -227 290 -270 145 -38 259 15 274
126 7 49 -18 102 -88 188 -29 37 -48 69 -45 78 6 16 72 19 95 5 24 -15 69 8
80 41 16 44 14 53 -15 87 -22 27 -32 31 -72 30 -26 0 -87 -11 -136 -24z"/>
<path d="M3131 5121 c-20 -20 -23 -37 -47 -255 -8 -83 -13 -166 -9 -185 16
-85 67 -139 161 -170 110 -36 172 -24 213 42 55 90 27 186 -55 187 -28 0 -35
-6 -55 -47 -27 -55 -53 -64 -87 -33 -27 25 -28 71 -7 210 8 52 15 127 15 167
0 63 -3 74 -22 87 -31 22 -84 20 -107 -3z"/>
<path d="M3213 4460 c-53 -21 -57 -88 -9 -136 39 -39 72 -43 110 -13 46 36 33
114 -24 144 -33 17 -45 18 -77 5z"/>
<path d="M8290 5585 l-55 -23 -6 -213 c-3 -118 -4 -216 -3 -218 2 -2 34 9 72
24 133 52 161 101 162 281 0 108 -2 124 -21 148 -26 33 -72 34 -149 1z m90
-74 c15 -29 12 -176 -4 -216 -13 -31 -41 -55 -65 -55 -7 0 -11 46 -11 135 0
131 1 136 23 145 34 14 45 12 57 -9z"/>
<path d="M8080 5502 c-47 -20 -88 -41 -92 -47 -4 -5 -8 -105 -8 -222 l0 -212
98 43 c96 42 97 42 100 80 4 42 2 42 -77 10 -19 -8 -38 -11 -43 -6 -4 4 -5 28
-2 53 6 43 8 46 54 62 45 16 48 19 47 52 -1 40 -4 41 -54 20 -19 -8 -37 -15
-39 -15 -2 0 -4 23 -4 50 0 28 4 50 10 50 5 0 33 11 63 24 52 23 53 24 49 60
-2 20 -7 36 -11 35 -3 -1 -44 -17 -91 -37z"/>
<path d="M7830 5400 c-52 -22 -96 -40 -97 -40 -8 0 -1 -70 7 -75 5 -3 32 6 60
20 27 14 50 22 50 18 0 -5 -27 -78 -61 -163 -58 -152 -82 -240 -62 -240 5 0
52 17 104 38 94 38 94 38 97 76 4 42 2 42 -75 10 -28 -11 -33 -11 -33 0 0 8
27 84 60 169 54 139 74 228 53 227 -5 -1 -51 -19 -103 -40z"/>
<path d="M7643 5324 c-28 -12 -33 -20 -33 -47 0 -17 -3 -116 -7 -219 -6 -203
-7 -201 47 -173 l30 16 0 219 c0 121 -1 220 -2 219 -2 0 -18 -7 -35 -15z"/>
<path d="M7390 5221 l-65 -27 -3 -222 -2 -221 32 14 33 13 5 89 c4 74 8 88 23
91 16 3 40 -39 70 -120 6 -16 9 -16 39 -4 18 8 34 21 36 28 1 8 -11 45 -27 81
l-30 67 24 36 c39 57 46 152 14 190 -18 21 -77 15 -149 -15z m85 -101 c0 -39
-4 -47 -34 -67 -43 -29 -53 -20 -49 43 2 40 7 51 28 61 42 22 55 13 55 -37z"/>
<path d="M7229 5145 c-26 -14 -26 -14 -33 -186 -4 -95 -11 -180 -16 -190 -11
-20 -45 -34 -60 -24 -6 4 -10 72 -10 176 0 113 -4 169 -11 169 -13 0 -52 -20
-59 -31 -3 -5 -7 -82 -9 -173 -2 -132 0 -170 13 -194 19 -36 36 -44 76 -32 60
17 102 51 126 104 22 47 24 63 24 224 0 94 -3 172 -7 172 -5 -1 -20 -7 -34
-15z"/>
<path d="M6888 5001 c-48 -21 -91 -40 -94 -44 -4 -4 -9 -104 -12 -223 -4 -200
-3 -217 12 -211 9 4 55 23 101 43 83 35 85 37 85 70 0 39 -10 42 -63 19 -55
-23 -58 -21 -55 36 3 51 4 52 48 69 41 16 45 21 48 54 4 42 5 41 -41 21 -54
-23 -58 -20 -55 31 l3 46 63 25 c61 25 62 26 62 64 0 21 -3 39 -7 38 -5 -1
-47 -18 -95 -38z"/>
<path d="M6620 4895 l-105 -44 -3 -40 c-3 -45 1 -47 38 -26 14 8 29 14 33 15
5 0 7 -79 6 -175 -1 -97 1 -178 4 -182 4 -3 20 0 37 7 l30 12 0 98 c0 53 3
138 6 187 l7 91 38 12 c36 12 39 16 39 52 0 24 -5 38 -12 37 -7 0 -60 -20
-118 -44z"/>
<path d="M6355 4803 c-89 -46 -132 -142 -100 -219 14 -33 20 -36 118 -58 23
-5 27 -12 27 -39 0 -62 -73 -102 -87 -48 -5 19 -7 19 -39 4 -29 -14 -34 -22
-34 -50 0 -38 29 -73 60 -73 32 0 92 28 123 58 38 36 57 84 57 143 0 59 -21
85 -77 94 -63 11 -72 15 -79 37 -8 25 25 73 51 73 10 0 23 -9 29 -20 6 -11 12
-22 13 -24 1 -2 16 2 33 9 25 10 30 18 30 47 0 40 -37 83 -72 83 -13 -1 -36
-8 -53 -17z"/>
<path d="M7758 4721 c-37 -15 -70 -29 -72 -32 -7 -6 -11 -418 -4 -424 2 -3 19
1 36 7 l32 12 0 77 c0 118 34 126 76 19 9 -25 18 -46 20 -48 1 -2 21 6 43 18
l42 21 -35 66 c-35 65 -35 67 -18 87 48 54 60 168 22 206 -26 26 -60 24 -142
-9z m83 -87 c10 -29 -18 -85 -51 -101 l-25 -12 -3 57 c-3 45 0 59 15 70 25 18
54 11 64 -14z"/>
<path d="M6078 4684 c-33 -14 -38 -21 -47 -67 -6 -29 -30 -137 -52 -240 -23
-103 -40 -190 -37 -192 3 -3 21 1 40 10 32 13 36 20 43 60 6 41 11 48 40 61
51 21 62 18 69 -21 8 -39 9 -40 55 -24 26 9 32 16 28 33 -39 177 -93 396 -97
395 -3 0 -22 -7 -42 -15z m31 -254 c1 -9 -13 -24 -30 -34 l-32 -19 6 24 c3 13
11 51 18 84 l13 60 12 -50 c7 -27 13 -57 13 -65z"/>
<path d="M7520 4621 l-85 -37 -8 -218 c-5 -120 -6 -220 -3 -223 2 -3 49 15
103 39 97 43 98 44 101 81 2 20 2 37 -1 37 -2 0 -31 -11 -65 -24 l-62 -25 0
55 c0 53 1 54 38 69 57 23 67 30 70 55 5 34 -10 42 -51 25 -55 -23 -58 -20
-55 33 l3 47 63 29 c58 28 62 32 62 63 0 20 -5 33 -12 32 -7 0 -51 -18 -98
-38z"/>
<path d="M5795 4557 l-80 -32 -3 -232 c-1 -128 0 -233 3 -233 3 0 19 7 35 15
28 15 29 18 32 97 l3 82 55 28 c70 36 98 76 106 155 8 75 -8 131 -43 144 -29
11 -13 14 -108 -24z m73 -106 c5 -45 -14 -86 -44 -100 -41 -18 -44 -14 -44 54
0 70 12 87 60 82 20 -2 26 -8 28 -36z"/>
<path d="M7260 4511 c-104 -46 -105 -47 -108 -84 -4 -41 4 -45 48 -22 l30 16
0 -186 c0 -197 1 -202 47 -170 19 14 21 27 28 200 l7 186 37 17 c31 15 36 22
39 55 2 26 -1 37 -10 36 -7 -1 -60 -22 -118 -48z"/>
<path d="M7045 4423 c-162 -66 -165 -69 -165 -107 0 -40 5 -42 57 -21 l36 15
-7 -190 c-4 -104 -4 -190 1 -190 4 0 23 9 41 20 l32 20 0 147 c0 204 4 219 51
244 34 17 39 24 39 54 0 41 -4 42 -85 8z"/>
<path d="M6795 4318 c-11 -6 -23 -16 -27 -22 -4 -6 -8 -84 -8 -174 0 -126 -3
-170 -15 -192 -15 -29 -59 -50 -73 -35 -4 4 -5 87 -4 186 2 98 1 179 -2 179
-3 0 -21 -8 -41 -17 l-35 -17 -1 -165 c-1 -176 -1 -183 6 -218 17 -78 167 -26
217 76 21 42 23 63 26 229 4 194 3 196 -43 170z"/>
<path d="M6374 4137 l-71 -32 -7 -155 c-7 -172 -8 -310 -2 -310 17 0 167 78
189 99 59 54 78 164 34 197 l-23 17 23 45 c27 53 30 118 7 150 -21 31 -65 28
-150 -11z m84 -98 c3 -30 -2 -41 -28 -63 -49 -41 -61 -35 -56 27 3 28 5 55 6
59 0 9 30 16 55 15 15 -2 21 -10 23 -38z m2 -189 c0 -42 -9 -59 -41 -75 -45
-24 -49 -19 -49 45 0 59 0 60 33 68 40 11 57 -1 57 -38z"/>
</g>
</svg>
