<?xml version="1.0" standalone="no"?>
<!DOCTYPE svg PUBLIC "-//W3C//DTD SVG 20010904//EN"
 "http://www.w3.org/TR/2001/REC-SVG-20010904/DTD/svg10.dtd">
<svg version="1.0" xmlns="http://www.w3.org/2000/svg"
 width="1024.000000pt" height="1024.000000pt" viewBox="0 0 1024.000000 1024.000000"
 preserveAspectRatio="xMidYMid meet">

<g transform="translate(0.000000,1024.000000) scale(0.100000,-0.100000)"
fill="#fff" stroke="none">
<path d="M3925 7570 c-181 -21 -262 -46 -865 -274 -228 -87 -530 -200 -670
-251 -542 -199 -592 -221 -677 -298 -71 -65 -100 -122 -119 -232 -3 -19 -19
-41 -42 -60 -57 -46 -82 -75 -111 -130 -24 -46 -26 -60 -26 -165 0 -109 2
-118 30 -169 38 -69 90 -111 201 -162 49 -22 99 -45 111 -51 27 -13 30 -30 37
-188 3 -63 13 -218 21 -345 9 -126 22 -329 30 -450 24 -359 44 -587 56 -630
37 -134 179 -305 309 -375 127 -68 397 -174 900 -355 657 -236 1024 -357 1945
-640 471 -145 736 -189 1000 -166 324 29 590 133 1290 503 563 299 665 372
780 563 76 127 92 219 230 1320 20 160 40 304 44 320 6 26 23 39 130 95 68 36
141 80 163 99 86 73 118 159 118 321 0 147 -28 229 -108 322 -26 29 -30 43
-35 115 -7 106 -38 175 -109 243 -108 103 -189 129 -1163 370 -740 183 -876
215 -2080 485 -375 84 -702 148 -873 170 -144 20 -409 27 -517 15z m457 -156
c263 -32 964 -180 1978 -419 179 -42 386 -90 460 -106 205 -45 994 -242 1221
-304 302 -83 366 -107 421 -158 113 -105 73 -294 -85 -394 -34 -22 -334 -166
-887 -428 -107 -51 -292 -138 -410 -195 -457 -217 -629 -272 -949 -301 -285
-26 -552 23 -1366 255 -715 202 -1123 329 -1895 586 -1001 334 -1045 352
-1099 460 -40 78 -33 149 20 214 55 66 19 51 1139 469 814 304 871 322 1075
336 129 8 216 5 377 -15z m-2712 -1116 c32 -53 107 -112 189 -149 75 -34 479
-178 871 -311 1119 -377 2458 -766 2920 -849 103 -19 163 -23 345 -23 241 -1
334 10 537 65 235 63 214 54 1766 800 179 85 250 132 293 191 l28 39 25 -50
c22 -43 26 -64 26 -141 0 -126 -14 -175 -66 -226 -35 -35 -130 -86 -511 -275
-870 -430 -1077 -522 -1372 -610 -267 -78 -541 -105 -771 -75 -205 27 -490 94
-1010 237 -1010 278 -1795 523 -2710 846 -549 194 -626 228 -658 288 -19 37
-27 146 -13 186 11 34 62 99 78 99 4 0 19 -19 33 -42z m375 -618 c44 -16 139
-49 210 -75 299 -108 992 -338 1390 -462 203 -63 543 -162 1040 -301 713 -200
1035 -278 1244 -301 51 -6 95 -12 97 -13 3 -3 -14 -360 -55 -1178 -11 -217
-21 -434 -23 -482 -2 -47 -6 -89 -10 -93 -15 -15 -287 16 -433 49 -292 67
-795 221 -1590 487 -769 257 -1415 494 -1590 582 -165 82 -271 212 -294 358
-15 91 -44 503 -91 1265 -13 221 -14 208 8 199 9 -4 53 -20 97 -35z m6196
-472 c-13 -88 -77 -569 -126 -953 -39 -314 -52 -372 -101 -465 -59 -114 -147
-198 -300 -288 -236 -138 -878 -471 -1089 -564 -200 -89 -425 -157 -517 -158
-36 0 -37 1 -32 33 4 29 24 388 69 1257 8 157 18 324 21 371 l6 86 112 7 c270
15 518 80 843 220 185 80 676 312 928 438 105 53 192 94 194 92 2 -2 -1 -36
-8 -76z"/>
<path d="M4025 7314 c-16 -2 -65 -9 -108 -15 -152 -20 -285 -64 -847 -279
-157 -60 -438 -166 -625 -235 -532 -196 -525 -193 -551 -249 -36 -74 11 -127
161 -185 135 -52 1072 -365 1480 -495 1026 -325 1747 -529 2123 -600 141 -27
340 -38 475 -26 283 23 489 90 927 300 113 54 302 144 420 200 256 122 687
328 786 376 96 47 126 79 132 144 4 49 3 52 -36 89 -31 29 -63 46 -134 70
-217 71 -954 258 -1728 437 -179 42 -392 91 -475 110 -82 19 -240 55 -350 79
-110 24 -335 73 -500 110 -417 92 -570 123 -718 145 -124 19 -371 33 -432 24z
m425 -169 c200 -31 869 -177 1680 -365 140 -33 345 -80 455 -105 453 -104
1374 -335 1543 -387 84 -26 100 -34 90 -44 -12 -12 -240 -122 -638 -309 -85
-40 -247 -116 -360 -170 -522 -247 -681 -312 -890 -362 -157 -37 -407 -43
-585 -14 -337 56 -1099 265 -1918 527 -645 206 -1729 563 -1740 573 -4 5 79
40 185 79 315 116 580 215 793 297 585 224 738 275 880 294 99 14 381 6 505
-14z"/>
<path d="M4549 6985 c-168 -32 -284 -89 -379 -184 -105 -106 -147 -218 -137
-361 19 -277 281 -518 717 -660 182 -59 279 -74 475 -74 148 1 182 4 265 26
270 72 433 225 463 433 27 190 -65 381 -258 535 -161 128 -365 213 -648 271
-135 27 -390 35 -498 14z m505 -159 c301 -69 514 -177 651 -328 100 -110 138
-253 100 -368 -22 -68 -118 -166 -195 -202 -238 -111 -510 -114 -832 -8 -276
91 -496 246 -574 406 -38 78 -45 191 -16 257 59 133 196 225 388 262 123 23
330 15 478 -19z"/>
<path d="M4910 6729 c-69 -12 -177 -64 -185 -89 -4 -11 8 -48 29 -92 19 -40
38 -85 41 -100 7 -25 5 -28 -20 -28 -15 0 -103 25 -196 56 -187 61 -221 64
-252 22 -28 -37 -15 -77 33 -100 41 -20 338 -113 391 -122 56 -10 132 11 164
44 40 42 43 97 11 185 -14 38 -21 74 -17 78 5 5 45 12 90 16 44 4 85 11 89 16
5 6 14 26 21 45 10 29 9 37 -7 53 -23 23 -111 30 -192 16z"/>
<path d="M5211 6677 c-19 -23 -133 -418 -127 -441 7 -28 25 -38 131 -71 174
-54 289 -35 335 56 42 81 13 199 -48 199 -15 0 -38 -7 -51 -16 -20 -15 -23
-23 -19 -65 6 -57 -3 -69 -52 -69 -38 0 -130 27 -130 38 0 4 19 68 42 142 55
181 56 192 23 219 -31 24 -87 28 -104 8z"/>
<path d="M5193 6090 c-31 -13 -55 -63 -44 -92 12 -32 42 -57 78 -64 68 -13
112 85 61 134 -28 25 -66 34 -95 22z"/>
<path d="M2465 5021 c-84 -50 -114 -128 -122 -311 -12 -263 50 -419 192 -493
59 -30 170 -35 212 -8 42 27 81 86 89 138 6 37 4 43 -20 58 -15 10 -43 18 -64
19 -33 1 -38 -3 -54 -36 -34 -72 -85 -81 -142 -24 -55 56 -71 120 -70 286 1
161 13 211 57 244 23 17 31 18 64 8 42 -12 93 -78 93 -118 0 -28 16 -40 62
-48 29 -5 41 -3 56 12 41 41 -4 165 -84 230 -73 61 -206 82 -269 43z"/>
<path d="M2937 4923 c-3 -4 -8 -184 -12 -399 -9 -443 -14 -412 77 -439 41 -12
53 -12 60 -3 4 7 8 81 7 163 -2 185 -2 185 14 180 6 -2 52 -15 100 -30 l88
-26 -6 -162 c-5 -125 -3 -168 7 -187 16 -30 105 -67 122 -50 8 8 11 134 11
408 l0 397 -29 13 c-15 8 -46 17 -67 19 l-39 6 0 -142 c0 -106 -3 -141 -12
-141 -7 0 -52 12 -100 26 l-88 27 0 154 0 154 -32 13 c-47 20 -95 28 -101 19z"/>
<path d="M3520 4336 c0 -341 2 -397 15 -410 18 -18 299 -109 323 -104 22 4 30
119 10 135 -7 6 -56 24 -108 40 l-95 29 -3 103 c-2 81 0 102 10 99 70 -27 159
-50 172 -45 12 5 16 20 16 61 0 64 1 63 -119 101 l-81 26 0 89 c0 51 4 90 10
90 5 0 44 -11 87 -25 118 -37 133 -33 133 35 0 61 -14 75 -92 99 -40 12 -107
33 -148 47 -41 13 -87 24 -103 24 l-27 0 0 -394z"/>
<path d="M3996 4582 c-2 -4 -8 -178 -12 -387 l-7 -381 24 -26 c17 -18 57 -37
134 -61 160 -52 181 -57 194 -44 16 16 14 113 -3 130 -8 8 -54 27 -103 42 -48
15 -91 32 -96 39 -8 13 -7 133 2 158 5 15 13 14 84 -9 44 -13 85 -22 91 -20 7
3 16 27 20 53 9 69 -6 86 -101 114 -43 12 -84 27 -91 33 -8 6 -11 28 -8 66 2
31 5 69 5 85 1 27 3 28 34 22 17 -3 63 -16 100 -28 80 -25 87 -21 87 50 0 79
-2 80 -196 137 -125 36 -149 40 -158 27z"/>
<path d="M4515 4401 c-83 -51 -106 -144 -63 -258 18 -48 41 -78 139 -178 144
-148 173 -203 131 -255 -16 -19 -24 -22 -56 -16 -52 10 -92 51 -119 121 l-23
60 -56 3 c-54 3 -55 2 -61 -26 -12 -61 30 -159 94 -216 61 -56 121 -80 200
-81 57 0 70 4 102 28 55 42 72 80 71 162 0 48 -7 84 -21 116 -26 58 -36 71
-160 193 -77 77 -104 111 -113 143 -11 36 -11 46 4 68 39 59 129 5 160 -96 3
-12 21 -19 55 -24 77 -10 83 0 55 94 -20 69 -90 141 -159 164 -65 23 -142 22
-180 -2z"/>
<path d="M4976 4299 c-9 -30 -14 -750 -5 -782 11 -39 34 -52 179 -96 156 -47
158 -47 171 -14 12 33 5 91 -13 109 -7 6 -51 24 -98 39 -47 15 -91 32 -97 38
-15 11 -18 154 -3 177 7 12 20 11 91 -10 79 -23 82 -23 95 -5 14 19 19 81 8
109 -4 10 -46 28 -106 47 l-99 31 7 86 c4 48 8 89 11 91 2 3 41 -7 86 -22 46
-15 91 -27 100 -27 31 0 34 113 4 138 -7 6 -76 29 -154 51 -77 23 -148 44
-157 47 -9 3 -18 0 -20 -7z"/>
<path d="M7290 4644 c-76 -20 -204 -83 -270 -133 -201 -151 -360 -381 -405
-585 -23 -101 -17 -248 13 -323 44 -115 138 -203 251 -237 67 -20 207 -21 276
-2 169 45 307 128 450 271 178 178 253 336 263 554 7 168 -17 256 -95 342 -76
84 -198 129 -343 128 -47 0 -110 -7 -140 -15z m257 -140 c68 -20 132 -76 165
-142 19 -40 22 -62 22 -142 -2 -199 -96 -379 -281 -541 -164 -144 -376 -214
-521 -174 -153 43 -225 185 -187 370 31 147 102 272 229 404 193 199 393 277
573 225z"/>
<path d="M7315 4375 c-30 -29 -31 -60 -10 -195 29 -176 50 -210 129 -210 42 0
42 0 42 -36 0 -26 7 -42 23 -55 33 -27 56 -24 80 10 27 37 27 71 0 105 l-21
26 36 41 c45 53 59 97 54 165 -5 59 -28 94 -63 94 -37 0 -53 -22 -57 -81 -3
-33 -12 -66 -24 -82 -34 -48 -47 -32 -72 93 -17 86 -28 119 -43 133 -29 23
-45 22 -74 -8z"/>
<path d="M7126 4258 c-75 -75 -136 -164 -136 -196 0 -24 35 -65 93 -109 16
-12 26 -27 23 -32 -4 -6 -52 -34 -108 -63 -115 -60 -168 -104 -168 -139 0 -27
25 -69 41 -69 27 0 293 158 333 198 73 72 70 109 -14 193 -27 27 -50 53 -50
56 0 4 27 34 60 69 35 36 60 71 60 84 0 22 -41 70 -60 70 -7 0 -40 -28 -74
-62z"/>
</g>
</svg>
