<?xml version="1.0" standalone="no"?>
<!DOCTYPE svg PUBLIC "-//W3C//DTD SVG 20010904//EN"
 "http://www.w3.org/TR/2001/REC-SVG-20010904/DTD/svg10.dtd">
<svg version="1.0" xmlns="http://www.w3.org/2000/svg"
 width="1024.000000pt" height="1024.000000pt" viewBox="0 0 1024.000000 1024.000000"
 preserveAspectRatio="xMidYMid meet">

<g transform="translate(0.000000,1024.000000) scale(0.100000,-0.100000)"
fill="#fff" stroke="none">
<path d="M4535 9245 c-219 -74 -1109 -362 -1455 -472 -143 -45 -244 -83 -258
-96 -12 -11 -27 -39 -33 -61 -8 -30 -10 -996 -7 -3548 l5 -3507 26 -34 c21
-28 49 -43 179 -91 84 -32 475 -182 868 -334 393 -151 754 -290 803 -309 48
-18 96 -33 107 -33 26 0 2363 614 2554 671 76 23 112 54 121 103 3 17 4 1654
3 3638 l-3 3607 -29 30 c-34 35 -47 39 -431 106 -143 26 -291 53 -330 60 -38
8 -248 46 -465 85 -217 39 -516 93 -665 120 -571 104 -726 130 -762 129 -21 0
-123 -29 -228 -64z m581 -209 c131 -25 356 -65 499 -91 143 -25 379 -68 525
-95 146 -27 454 -83 685 -125 230 -42 423 -79 427 -81 4 -3 8 -1583 8 -3512
l0 -3507 -238 -63 c-130 -35 -469 -123 -752 -197 -424 -110 -1325 -350 -1392
-371 -17 -5 -18 192 -18 4040 0 2225 4 4046 8 4046 5 0 116 -20 248 -44z
m-616 -86 c-17 -28 -141 -259 -276 -513 -268 -502 -363 -677 -370 -677 -2 0
-4 233 -4 519 l0 518 138 44 c75 24 227 73 337 110 110 36 201 62 203 59 2 -4
-11 -31 -28 -60z m157 -4044 l6 -3887 -29 11 c-16 6 -195 75 -399 152 -203 77
-491 186 -640 243 -148 57 -346 133 -440 168 l-170 65 -1 2689 c0 1478 2 2976
5 3328 l6 640 20 -31 c31 -48 604 -771 658 -830 65 -71 116 -84 199 -49 32 13
67 69 205 325 192 355 261 484 402 747 88 166 161 307 161 314 0 7 2 10 5 7 3
-3 8 -1754 12 -3892z m-1007 3387 c0 -241 3 -448 6 -460 11 -42 -10 -23 -86
75 -103 134 -456 571 -488 604 -14 15 -24 29 -21 32 2 2 101 33 219 69 118 37
247 77 285 91 39 13 73 25 78 25 4 1 7 -196 7 -436z"/>
<path d="M5980 8539 c-171 -25 -356 -150 -449 -303 -84 -140 -116 -272 -109
-461 4 -107 10 -144 32 -210 89 -261 258 -437 501 -522 71 -24 94 -27 210 -28
111 0 140 3 197 23 133 46 263 151 344 278 79 123 114 250 115 412 1 234 -75
416 -246 587 -137 138 -269 205 -443 225 -48 5 -89 9 -92 9 -3 -1 -30 -5 -60
-10z m202 -200 c120 -26 256 -116 335 -222 237 -319 142 -772 -187 -898 -69
-26 -187 -35 -263 -19 -305 63 -531 423 -463 740 62 293 301 458 578 399z"/>
<path d="M5929 8109 c0 -8 0 -67 1 -131 1 -137 17 -125 -140 -104 -52 7 -98
11 -102 9 -5 -2 -8 -42 -8 -88 0 -100 -23 -87 203 -111 l158 -18 22 22 c20 21
22 34 25 152 l4 130 24 -6 c24 -6 24 -6 24 70 l0 76 -37 0 c-21 0 -68 3 -105
7 -54 5 -68 3 -69 -8z"/>
<path d="M6183 8093 c-3 -7 -3 -86 -1 -175 3 -150 5 -166 27 -205 39 -68 103
-103 187 -103 51 0 91 14 121 42 26 24 49 114 39 152 -6 24 -10 26 -66 26 -51
0 -60 -3 -60 -18 0 -20 -18 -42 -34 -42 -36 1 -41 18 -46 167 l-5 148 -78 11
c-64 8 -80 8 -84 -3z"/>
<path d="M6342 7564 c-33 -23 -31 -86 4 -113 34 -26 68 -27 94 -1 28 28 26 75
-5 105 -28 29 -61 32 -93 9z"/>
<path d="M6574 6448 c-12 -5 -27 -21 -33 -34 -14 -32 -15 -634 0 -723 23 -142
90 -229 196 -252 103 -23 267 16 307 73 24 33 21 103 -5 129 -24 24 -43 23
-148 -6 -53 -14 -72 -15 -103 -6 -40 12 -68 50 -68 93 0 20 5 23 45 24 58 2
144 44 186 91 86 98 108 239 55 348 -36 73 -86 107 -165 113 -37 3 -69 -1 -94
-11 l-37 -16 0 72 c0 94 -15 117 -73 116 -23 0 -52 -5 -63 -11z m272 -363 c11
-17 15 -37 11 -59 -10 -64 -49 -103 -119 -120 l-28 -6 0 89 c0 82 2 91 22 105
12 9 39 16 60 16 29 0 41 -6 54 -25z"/>
<path d="M6187 6029 c-86 -20 -141 -64 -191 -150 -35 -61 -59 -179 -51 -245 8
-63 -6 -99 -44 -119 -38 -19 -95 -20 -110 -1 -9 10 -11 64 -9 183 3 150 1 171
-16 195 -24 37 -82 52 -170 45 -231 -19 -410 -263 -419 -568 -2 -79 0 -89 21
-112 30 -32 74 -41 117 -23 45 19 51 35 58 146 11 179 64 289 167 343 l55 28
5 -178 c6 -222 17 -245 124 -263 102 -16 222 16 289 78 23 22 31 24 45 14 85
-60 157 -68 240 -26 62 31 95 68 136 154 29 61 31 72 31 180 0 124 -14 173
-71 247 -45 59 -133 89 -207 72z m86 -226 c28 -48 33 -133 12 -188 -42 -112
-149 -93 -162 28 -8 69 5 133 34 167 21 26 32 31 61 28 28 -2 40 -10 55 -35z"/>
<path d="M6754 5200 c-12 -4 -30 -20 -41 -33 l-20 -26 -17 21 c-26 30 -83 19
-118 -24 -26 -30 -28 -30 -28 -10 0 23 -21 28 -68 15 l-24 -6 4 -173 c1 -95 6
-175 9 -178 3 -4 24 -3 45 2 l39 8 -3 90 c-5 111 10 171 44 186 40 19 47 0 52
-132 4 -117 5 -120 27 -120 53 0 55 4 55 124 0 93 3 116 20 144 22 36 44 41
60 13 5 -11 10 -72 10 -135 0 -126 -2 -122 60 -110 l32 7 -4 148 c-3 140 -4
149 -27 173 -25 27 -65 33 -107 16z"/>
<path d="M6194 5090 c-56 -31 -69 -51 -54 -80 17 -32 40 -32 76 0 38 33 53 37
72 18 19 -19 15 -58 -5 -58 -44 0 -100 -25 -130 -57 -76 -80 -16 -205 83 -173
19 6 43 23 54 37 14 18 20 21 20 10 0 -23 16 -29 51 -22 l31 7 -4 145 -3 145
-33 29 c-43 39 -90 38 -158 -1z m110 -207 c-17 -73 -94 -98 -94 -31 0 23 6 32
33 43 52 23 69 20 61 -12z"/>
<path d="M5302 5059 c-59 -29 -99 -82 -124 -162 -40 -134 3 -272 99 -313 73
-31 160 -10 226 54 44 43 46 54 11 81 l-27 21 -38 -35 c-29 -26 -48 -35 -75
-35 -74 0 -104 42 -104 146 0 90 32 148 90 165 41 12 57 9 103 -23 16 -11 22
-8 48 20 30 33 30 34 12 54 -47 52 -145 64 -221 27z"/>
<path d="M5912 5047 c-69 -22 -123 -117 -122 -215 1 -45 36 -110 72 -132 55
-33 140 -20 195 32 28 26 29 40 4 62 -18 16 -21 16 -56 -9 -47 -31 -69 -32
-100 0 -43 42 -41 44 99 65 38 6 74 14 79 17 13 8 1 87 -20 130 -10 22 -29 41
-49 49 -38 16 -56 16 -102 1z m72 -83 c32 -31 20 -49 -39 -60 -31 -5 -57 -8
-60 -6 -2 2 1 16 6 31 18 49 63 66 93 35z"/>
<path d="M5714 5008 c-12 -5 -28 -22 -35 -37 l-13 -26 -4 29 c-3 26 -6 28 -34
22 -17 -3 -34 -6 -39 -6 -11 0 -12 -357 -1 -364 4 -2 23 -1 42 3 l35 7 5 114
c6 128 16 154 67 171 27 8 33 16 35 40 0 16 1 35 2 42 1 16 -33 19 -60 5z"/>
<path d="M6154 4410 c-47 -19 -64 -57 -64 -144 0 -142 -39 -200 -240 -356
-148 -115 -243 -213 -287 -295 -30 -58 -73 -190 -73 -228 0 -10 -27 -43 -59
-73 -106 -98 -161 -215 -161 -340 l0 -67 -58 -61 c-99 -103 -147 -207 -158
-345 -27 -317 254 -545 621 -502 88 10 443 88 645 141 54 15 116 21 225 23
123 3 162 8 215 26 204 70 373 251 410 439 27 135 -5 264 -90 371 l-51 62 21
55 c28 75 27 193 -1 269 -39 105 -161 210 -298 257 -58 20 -61 22 -61 54 0 18
-6 65 -14 106 -39 197 -149 397 -292 527 -91 83 -163 108 -230 81z m185 -312
c89 -119 147 -272 158 -412 9 -135 33 -168 150 -206 127 -42 190 -84 223 -151
24 -46 26 -119 4 -160 -15 -29 -16 -30 -34 -14 -25 23 -169 84 -330 140 -244
85 -414 176 -494 265 -42 47 -87 135 -79 156 2 7 44 45 93 83 48 39 107 92
130 118 40 45 120 192 120 220 0 26 20 12 59 -39z m-539 -554 c0 -28 93 -135
167 -190 131 -99 271 -164 598 -280 310 -109 418 -190 432 -327 5 -53 -12
-157 -26 -157 -4 0 -15 14 -25 30 -9 17 -41 48 -69 69 -104 78 -217 122 -546
215 -287 81 -425 145 -532 243 -112 104 -143 224 -87 343 14 30 34 65 44 77
17 21 20 21 32 6 6 -9 12 -22 12 -29z m-136 -521 c104 -96 280 -187 473 -247
43 -14 166 -50 273 -81 196 -56 339 -116 378 -158 11 -12 24 -34 27 -49 6 -23
1 -34 -27 -62 -52 -52 -126 -70 -263 -63 -116 6 -190 25 -514 133 -377 125
-555 278 -555 474 0 68 13 103 61 168 l25 34 33 -49 c18 -27 58 -72 89 -100z
m-291 -352 c27 -46 131 -136 219 -191 104 -63 258 -124 415 -163 116 -29 147
-47 81 -47 -16 0 -121 -18 -231 -41 -177 -36 -214 -41 -299 -37 -78 4 -107 10
-150 31 -146 72 -205 224 -141 368 20 44 68 109 82 109 4 0 14 -13 24 -29z"/>
<path d="M3935 6939 c-187 -15 -407 -33 -490 -39 -272 -19 -277 -20 -307 -51
-30 -30 -38 -82 -17 -121 25 -46 55 -48 335 -28 142 11 419 31 614 45 195 14
370 30 387 36 43 14 63 44 63 97 0 32 -6 49 -25 67 -22 23 -31 25 -122 24 -54
-1 -251 -14 -438 -30z"/>
</g>
</svg>
