<?xml version="1.0" standalone="no"?>
<!DOCTYPE svg PUBLIC "-//W3C//DTD SVG 20010904//EN"
 "http://www.w3.org/TR/2001/REC-SVG-20010904/DTD/svg10.dtd">
<svg version="1.0" xmlns="http://www.w3.org/2000/svg"
 width="1024.000000pt" height="1024.000000pt" viewBox="0 0 1024.000000 1024.000000"
 preserveAspectRatio="xMidYMid meet">

<g transform="translate(0.000000,1024.000000) scale(0.100000,-0.100000)"
fill="#fff" stroke="none">
<path d="M4505 9719 c-522 -20 -847 -43 -1230 -84 -822 -91 -1328 -252 -1438
-459 -17 -32 -22 -58 -22 -121 0 -121 42 -191 157 -261 32 -20 58 -38 58 -42
0 -9 25 -434 45 -752 37 -602 65 -1099 110 -1940 41 -763 59 -1085 85 -1550
36 -625 35 -615 100 -1845 10 -209 22 -414 25 -455 3 -41 12 -203 20 -360 9
-157 22 -410 30 -563 14 -264 16 -282 41 -338 29 -64 81 -118 141 -146 36 -17
164 -18 2499 -18 l2460 0 59 30 c67 34 138 113 155 172 13 45 31 319 80 1228
11 204 29 525 40 715 11 190 22 392 25 450 3 58 14 272 25 475 11 204 22 411
25 460 3 50 10 185 15 300 6 116 19 374 30 575 11 201 38 725 60 1165 22 440
47 922 55 1070 8 149 26 482 40 740 34 642 26 588 83 621 145 83 204 217 156
356 -85 250 -692 430 -1764 522 -668 58 -1530 80 -2165 55z m1195 -169 c889
-38 1551 -104 1962 -195 360 -81 601 -189 624 -281 10 -40 -19 -114 -45 -114
-3 0 -5 28 -3 62 3 76 -10 105 -60 130 -45 23 -75 17 -89 -19 -5 -14 -18 -194
-28 -400 -10 -205 -21 -376 -24 -379 -3 -3 -74 10 -159 30 -305 70 -735 122
-1282 156 -93 6 -170 11 -170 13 -1 1 -32 48 -69 104 -250 375 -645 604 -1115
644 -544 47 -1043 -196 -1352 -659 l-65 -97 -70 -3 c-136 -5 -613 -43 -790
-63 -226 -26 -486 -69 -634 -107 -73 -18 -114 -25 -116 -18 -2 6 -11 157 -20
336 -21 440 -23 458 -47 471 -26 14 -60 5 -97 -27 -29 -25 -31 -29 -31 -100 0
-41 -4 -74 -8 -74 -15 0 -42 59 -42 94 0 75 104 145 319 216 411 135 944 209
1886 260 532 30 1119 37 1525 20z m-382 -430 c152 -19 328 -80 468 -160 329
-189 544 -490 625 -873 31 -146 31 -382 -1 -521 -57 -257 -176 -474 -359 -656
-347 -345 -857 -466 -1328 -314 -110 35 -306 134 -385 194 -485 368 -653 1044
-397 1597 62 136 142 249 258 364 158 157 300 246 507 315 57 19 143 41 191
48 107 17 310 20 421 6z m-1573 -767 c-41 -95 -68 -217 -86 -378 -35 -331 66
-712 262 -990 81 -114 230 -265 338 -344 161 -116 371 -209 574 -253 85 -18
135 -22 302 -22 226 -1 327 15 505 81 351 129 659 411 820 750 116 242 167
517 141 765 -13 125 -58 324 -86 378 -19 36 -27 35 157 20 68 -5 215 -17 328
-25 396 -31 714 -82 948 -152 60 -18 82 -29 82 -41 0 -9 -5 -107 -10 -217 -20
-386 -71 -1375 -95 -1870 -24 -470 -36 -718 -85 -1670 -11 -214 -31 -595 -45
-845 -13 -250 -29 -554 -35 -675 -30 -592 -56 -1035 -63 -1041 -4 -4 -7 7 -7
25 0 44 -51 255 -90 369 -278 829 -911 1421 -1744 1632 -256 65 -352 75 -671
74 -255 -1 -293 -3 -425 -27 -518 -93 -926 -296 -1286 -640 -314 -300 -533
-655 -658 -1067 -113 -377 -135 -755 -70 -1204 l7 -49 -39 7 c-40 8 -69 27
-85 57 -9 17 -20 190 -59 919 -29 546 -37 697 -70 1290 -36 648 -85 1556 -105
1930 -8 151 -22 397 -30 545 -8 149 -22 396 -30 550 -29 534 -61 1108 -86
1548 -12 205 -17 373 -13 377 14 14 186 58 329 85 234 43 687 93 1070 118 121
8 118 8 110 -10z m1818 -4617 c432 -70 755 -203 1083 -446 112 -83 311 -274
397 -380 203 -252 362 -573 447 -905 70 -272 88 -478 65 -770 -20 -261 -22
-274 -52 -286 -13 -5 -67 -9 -120 -9 l-96 0 7 63 c4 34 12 96 16 137 14 121
11 354 -6 495 -56 463 -281 919 -613 1243 -318 310 -709 504 -1166 579 -84 13
-164 17 -340 17 -206 -1 -244 -3 -365 -27 -464 -90 -824 -285 -1145 -619 -164
-170 -272 -325 -376 -543 -148 -308 -202 -555 -203 -925 -1 -205 3 -254 29
-390 l5 -25 -104 -3 -105 -2 -10 37 c-23 87 -42 287 -43 448 -1 289 35 513
126 790 118 356 302 646 577 910 357 342 844 568 1350 624 123 14 524 6 642
-13z m-188 -437 c342 -29 688 -151 960 -339 172 -119 373 -325 495 -508 132
-198 258 -512 302 -752 38 -212 30 -660 -14 -743 -8 -16 -42 -17 -495 -17
l-486 0 70 73 c99 102 118 141 118 247 0 75 -3 91 -28 132 -61 105 -168 159
-405 204 -34 7 -37 28 -13 84 34 80 11 159 -58 194 -14 8 -82 35 -150 60 -133
49 -205 87 -220 114 -4 9 -11 48 -14 86 -6 89 -40 139 -117 178 -170 85 -518
54 -765 -70 -144 -72 -271 -177 -316 -262 -21 -40 -24 -58 -24 -156 0 -81 -4
-116 -14 -128 -8 -9 -46 -32 -85 -50 -117 -54 -169 -131 -197 -292 -19 -109
-2 -299 36 -396 7 -17 -13 -18 -324 -18 l-331 0 -10 24 c-37 99 -47 520 -16
701 74 436 269 812 572 1106 405 392 946 579 1529 528z m-142 -1132 l37 -16 0
-62 c0 -68 23 -130 63 -167 41 -39 138 -90 258 -138 132 -52 134 -55 98 -126
-16 -31 -20 -53 -16 -86 10 -87 68 -130 218 -161 118 -24 206 -57 236 -87 29
-30 30 -83 2 -141 -28 -57 -133 -152 -222 -199 l-72 -39 -839 -3 c-599 -2
-842 1 -852 9 -18 15 -51 120 -63 206 -12 78 -7 142 16 218 23 75 53 107 135
147 84 40 134 90 144 144 4 20 4 67 1 105 -8 99 5 134 76 204 93 91 246 163
423 200 92 19 304 14 357 -8z"/>
<path d="M5070 8664 c-96 -35 -210 -76 -254 -90 -43 -15 -93 -39 -110 -54 -31
-28 -31 -29 -31 -132 0 -121 -1 -119 121 -223 45 -38 90 -84 100 -102 16 -29
16 -33 1 -57 -10 -15 -30 -28 -49 -31 -18 -3 -140 -5 -270 -3 -279 4 -270 0
-266 108 l3 64 -49 18 c-27 11 -80 27 -117 38 -67 18 -69 18 -91 0 -22 -17
-23 -24 -21 -137 2 -143 23 -210 84 -273 86 -88 174 -104 544 -98 232 5 277 8
318 24 77 30 138 82 172 149 28 54 30 66 30 164 0 99 -2 110 -30 160 -16 29
-54 75 -84 102 -30 27 -53 49 -50 49 16 0 263 90 273 100 6 6 12 58 14 128 5
182 0 184 -238 96z"/>
<path d="M5540 8564 c-134 -73 -122 -37 -117 -344 4 -286 7 -308 60 -387 25
-37 48 -56 101 -83 66 -34 74 -35 194 -39 72 -2 150 2 185 9 224 44 303 211
218 462 -39 115 -61 143 -104 134 -48 -10 -197 -85 -204 -103 -3 -9 0 -25 7
-37 38 -59 70 -123 70 -142 0 -34 -30 -51 -103 -57 -141 -13 -147 0 -147 345
0 192 -3 267 -12 276 -22 22 -62 12 -148 -34z"/>
<path d="M5736 7557 c-39 -31 -38 -78 0 -118 36 -37 49 -36 90 5 51 51 47 104
-9 125 -40 15 -48 14 -81 -12z"/>
<path d="M5939 7557 c-33 -21 -35 -24 -26 -58 4 -20 22 -49 38 -65 28 -27 31
-28 56 -14 63 35 73 123 18 148 -35 16 -44 15 -86 -11z"/>
<path d="M5860 7390 c-18 -14 -24 -26 -22 -47 8 -63 65 -83 101 -37 28 36 26
58 -5 83 -33 26 -42 26 -74 1z"/>
<path d="M4840 7279 c-69 -12 -164 -58 -168 -83 -6 -31 12 -37 53 -16 45 22
148 50 183 50 53 0 84 42 40 54 -27 7 -36 6 -108 -5z"/>
<path d="M5435 7204 c-118 -84 -311 -158 -489 -189 -172 -29 -413 -14 -537 35
-56 22 -67 19 -71 -20 -6 -52 127 -90 338 -97 182 -6 308 11 463 63 183 61
371 175 371 225 0 27 -18 23 -75 -17z"/>
<path d="M5696 7218 c-7 -13 -16 -50 -20 -83 -8 -79 -21 -125 -49 -165 -32
-48 -50 -57 -83 -40 -25 14 -28 13 -58 -23 -26 -32 -39 -38 -82 -43 -46 -6
-53 -4 -76 21 -32 34 -68 31 -86 -8 -33 -69 12 -109 121 -109 75 0 120 14 147
47 7 8 32 20 56 26 49 13 125 86 149 144 18 41 48 223 41 241 -8 22 -44 16
-60 -8z"/>
<path d="M5340 6677 c-31 -16 -37 -43 -14 -68 33 -37 89 -16 82 32 -5 34 -38
51 -68 36z"/>
<path d="M6182 6252 c-107 -53 -211 -112 -233 -130 -55 -47 -83 -104 -76 -160
9 -85 39 -96 300 -112 182 -12 217 -23 242 -77 39 -81 -8 -165 -97 -178 -24
-3 -187 -5 -363 -3 l-320 3 -3 152 c-2 143 -4 153 -23 164 -24 12 -98 -10
-120 -37 -8 -10 -14 -59 -16 -137 -2 -67 -6 -128 -8 -135 -3 -9 -18 -12 -42
-10 l-38 4 -5 134 c-3 74 -8 140 -12 146 -4 6 -21 17 -37 24 -26 10 -35 10
-63 -7 l-33 -19 -5 -140 -5 -139 -45 0 -45 0 -5 137 c-3 75 -7 138 -10 141
-15 14 -92 47 -109 47 -27 0 -31 -18 -34 -185 l-2 -140 -130 0 -130 0 -6 90
c-6 103 -22 139 -76 184 -52 43 -110 59 -243 66 -63 4 -117 9 -119 11 -9 9 16
23 139 79 69 31 133 65 143 75 46 44 24 159 -28 146 -13 -3 -106 -46 -208 -96
-213 -103 -237 -124 -245 -214 -7 -89 33 -138 124 -151 22 -3 93 -9 160 -14
69 -5 129 -14 142 -22 29 -18 44 -58 40 -110 l-3 -44 -270 0 c-242 1 -274 3
-308 19 -71 35 -91 111 -62 231 8 33 14 68 15 78 0 24 -36 57 -63 57 -30 0
-48 -20 -83 -90 -25 -49 -28 -66 -28 -150 0 -114 23 -179 86 -236 83 -75 -28
-69 1348 -69 l1235 0 57 28 c94 46 138 125 138 247 0 132 -48 218 -148 267
-53 26 -67 28 -202 31 -80 2 -149 7 -154 12 -4 4 61 43 145 85 245 123 247
124 207 198 -17 30 -30 43 -48 44 -15 1 -104 -37 -218 -95z"/>
<path d="M5100 6144 c-28 -26 -50 -50 -50 -55 0 -4 22 -32 49 -61 l50 -53 55
55 c31 30 56 60 56 66 0 14 -85 94 -100 94 -6 0 -33 -21 -60 -46z"/>
<path d="M5405 6159 c-61 -54 -62 -62 -9 -119 26 -28 52 -50 59 -50 13 0 105
94 105 107 0 15 -85 93 -102 93 -9 0 -33 -14 -53 -31z"/>
<path d="M3600 5320 c-27 -27 -25 -62 3 -88 l23 -22 1552 0 c1539 0 1552 0
1572 20 11 11 20 31 20 45 0 14 -9 34 -20 45 -20 20 -33 20 -1575 20 -1542 0
-1555 0 -1575 -20z"/>
<path d="M4000 5106 c-59 -17 -83 -30 -132 -74 -79 -72 -118 -189 -118 -359 0
-297 117 -448 345 -446 132 1 245 80 279 194 31 105 20 121 -80 117 l-69 -3
-22 -47 c-12 -26 -34 -55 -48 -64 -37 -24 -98 -23 -132 2 -49 36 -57 67 -61
220 -6 212 19 272 114 281 43 5 54 2 82 -22 18 -15 36 -43 42 -65 l10 -38 63
-4 c94 -6 107 2 107 59 0 87 -63 183 -148 227 -29 15 -131 37 -166 35 -12 0
-41 -6 -66 -13z"/>
<path d="M4491 5086 c-9 -11 -11 -95 -9 -323 3 -289 5 -311 25 -354 45 -97
122 -158 227 -179 120 -24 238 11 310 91 76 85 80 102 84 447 2 224 0 307 -9
318 -8 10 -35 14 -95 14 -74 0 -85 -2 -94 -20 -8 -14 -10 -116 -9 -311 2 -277
2 -291 -18 -317 -25 -34 -83 -57 -119 -48 -15 4 -42 22 -61 41 l-33 33 0 285
c0 162 -4 297 -10 311 -9 25 -13 26 -94 26 -60 0 -87 -4 -95 -14z"/>
<path d="M5262 5088 c-17 -17 -17 -819 0 -836 7 -7 44 -12 94 -12 70 0 83 3
88 18 2 9 4 75 4 146 l-1 130 47 1 c31 0 51 -4 59 -15 7 -8 35 -67 61 -130 27
-63 56 -123 64 -132 12 -15 32 -18 109 -18 57 0 93 4 93 10 0 6 -32 84 -71
173 l-70 163 49 50 c142 141 91 395 -89 448 -67 20 -418 23 -437 4z m338 -161
c42 -15 60 -47 60 -110 0 -42 -5 -54 -34 -83 -32 -32 -38 -34 -104 -34 l-71 0
-3 116 c-2 64 -1 118 1 120 9 9 118 2 151 -9z"/>
<path d="M5986 5084 c-14 -13 -16 -65 -16 -410 0 -253 4 -402 10 -415 10 -18
23 -19 175 -19 125 0 176 4 212 16 106 36 174 110 210 229 27 91 25 319 -4
397 -42 113 -106 177 -205 204 -79 21 -361 20 -382 -2z m354 -189 c44 -42 53
-83 48 -236 -5 -197 -31 -236 -158 -242 l-55 -2 -3 259 -2 258 69 -4 c61 -3
74 -7 101 -33z"/>
<path d="M5340 3030 c-59 -59 -19 -150 66 -150 63 0 96 89 53 144 -26 33 -88
37 -119 6z"/>
<path d="M4755 2984 c-46 -23 -163 -143 -168 -173 -7 -33 15 -86 41 -100 40
-21 63 -12 130 53 37 35 77 69 89 75 32 17 56 66 48 102 -12 55 -78 76 -140
43z"/>
<path d="M5811 2795 l-48 -45 -77 0 c-115 0 -171 -31 -182 -102 -5 -27 -1 -40
21 -66 32 -38 68 -42 119 -11 29 17 45 20 86 14 88 -12 165 27 223 115 25 37
21 83 -9 114 -40 40 -76 35 -133 -19z"/>
<path d="M4234 2720 c-30 -12 -54 -49 -54 -83 0 -43 52 -91 88 -82 42 10 72
44 72 81 0 46 -9 63 -41 79 -32 17 -36 17 -65 5z"/>
<path d="M6203 2650 c-38 -15 -58 -56 -47 -98 8 -32 17 -41 69 -67 l60 -30 25
-95 c25 -91 64 -171 98 -197 24 -19 66 -16 96 8 36 28 36 88 0 140 -14 20 -34
71 -44 113 -23 92 -48 141 -92 183 -51 49 -111 65 -165 43z"/>
<path d="M5115 2585 c-53 -52 -18 -135 57 -135 71 0 104 87 52 135 -35 32 -78
32 -109 0z"/>
<path d="M3892 2387 c-15 -15 -22 -36 -22 -61 0 -86 107 -120 145 -45 21 39
19 72 -6 103 -27 35 -86 36 -117 3z"/>
<path d="M5894 2270 c-55 -22 -70 -95 -29 -135 47 -48 128 -18 141 51 11 55
-58 107 -112 84z"/>
<path d="M3638 1975 c-41 -23 -47 -73 -17 -159 34 -100 57 -130 101 -134 29
-2 40 2 57 24 26 33 26 62 1 122 -10 26 -24 66 -30 89 -11 42 -41 73 -70 73
-8 -1 -27 -7 -42 -15z"/>
<path d="M6736 1919 c-36 -28 -34 -68 8 -137 26 -44 36 -73 41 -124 7 -77 25
-105 72 -114 26 -5 37 -1 57 19 37 37 36 123 -1 231 -46 132 -110 177 -177
125z"/>
<path d="M6297 1859 c-9 -5 -24 -23 -32 -39 -42 -82 66 -160 130 -95 28 27 32
63 10 104 -20 41 -67 54 -108 30z"/>
<path d="M3565 1415 c-49 -48 -24 -128 42 -141 27 -5 37 -1 63 24 20 21 30 40
30 62 0 41 -39 80 -80 80 -19 0 -40 -9 -55 -25z"/>
<path d="M6605 1265 c-71 -70 21 -187 102 -130 30 21 39 74 19 113 -25 49 -81
57 -121 17z"/>
<path d="M4755 1925 c-52 -51 -15 -135 59 -135 25 0 40 7 55 26 65 82 -41 183
-114 109z"/>
<path d="M4515 1705 c-53 -53 -16 -145 58 -145 45 0 77 34 77 84 0 47 -36 86
-80 86 -19 0 -40 -9 -55 -25z"/>
<path d="M5205 1610 c-14 -16 -17 -30 -12 -73 9 -91 37 -134 207 -326 35 -40
42 -43 72 -37 18 3 43 17 56 32 45 51 22 106 -93 224 -47 48 -68 79 -81 118
-9 29 -26 59 -37 67 -31 22 -90 19 -112 -5z"/>
<path d="M4969 1321 c-37 -38 -39 -82 -4 -116 51 -52 135 -15 135 60 0 25 -8
44 -25 60 -33 33 -70 32 -106 -4z"/>
<path d="M4317 1259 c-28 -17 -49 -73 -38 -103 32 -82 220 -134 329 -90 63 25
80 83 38 131 -23 26 -29 28 -91 25 -54 -2 -78 2 -122 23 -60 27 -88 30 -116
14z"/>
</g>
</svg>
