<?xml version="1.0" standalone="no"?>
<!DOCTYPE svg PUBLIC "-//W3C//DTD SVG 20010904//EN"
 "http://www.w3.org/TR/2001/REC-SVG-20010904/DTD/svg10.dtd">
<svg version="1.0" xmlns="http://www.w3.org/2000/svg"
 width="1024.000000pt" height="1024.000000pt" viewBox="0 0 1024.000000 1024.000000"
 preserveAspectRatio="xMidYMid meet">

<g transform="translate(0.000000,1024.000000) scale(0.100000,-0.100000)"
fill="#fff" stroke="none">
<path d="M4635 9601 c-152 -6 -162 -7 -213 -35 -60 -33 -101 -76 -134 -139
-22 -40 -23 -54 -26 -320 l-3 -277 30 -30 c21 -22 39 -30 65 -30 l35 0 -2 -77
-2 -78 -40 -5 c-52 -7 -64 -16 -81 -56 -29 -69 21 -134 103 -134 20 0 23 -4
18 -22 -21 -75 -117 -244 -274 -482 -98 -149 -208 -323 -244 -386 -166 -291
-266 -584 -319 -935 -9 -62 -13 -198 -13 -440 l0 -350 24 -48 c14 -26 33 -55
43 -64 17 -15 18 -87 18 -1761 l0 -1744 -25 -29 c-13 -16 -27 -45 -31 -64 -12
-67 3 -594 20 -690 48 -274 127 -449 265 -585 119 -117 237 -166 381 -158 101
6 193 49 264 123 l49 51 81 -82 c62 -62 98 -90 156 -117 125 -60 185 -72 355
-71 135 0 158 3 230 27 112 37 198 90 280 172 l70 71 57 -58 c34 -36 79 -69
115 -86 52 -24 69 -27 168 -27 106 0 113 1 188 37 141 68 270 217 338 391 82
213 112 430 107 776 -3 225 -3 226 -30 275 l-28 49 0 1737 0 1738 34 51 c20
29 40 75 46 108 17 80 7 641 -13 783 -39 270 -111 512 -218 731 -93 190 -153
291 -345 576 -202 300 -319 530 -259 507 26 -11 85 16 100 46 23 44 19 78 -14
111 -22 21 -39 29 -65 29 l-36 0 0 80 0 80 31 0 c22 0 41 10 65 34 l34 34 0
255 c0 278 -3 300 -59 381 -34 49 -106 99 -166 115 -47 13 -887 22 -1130 12z
m-75 -411 l0 -220 -55 0 -55 0 0 173 c0 117 4 180 13 197 12 23 71 70 88 70 5
0 9 -99 9 -220z m320 0 l0 -220 -75 0 -75 0 0 220 0 220 75 0 75 0 0 -220z
m310 0 l0 -220 -70 0 -70 0 0 220 0 220 70 0 70 0 0 -220z m320 0 l0 -220 -75
0 -75 0 0 220 0 220 75 0 75 0 0 -220z m238 197 c45 -22 52 -53 52 -242 l0
-175 -60 0 -60 0 0 221 0 220 23 -6 c12 -3 33 -11 45 -18z m-78 -697 l0 -80
-545 0 -545 0 0 80 0 80 545 0 545 0 0 -80z m-519 -269 l506 -1 12 -57 c29
-130 96 -257 294 -552 296 -443 415 -682 486 -971 53 -221 63 -310 68 -641 5
-292 4 -308 -15 -352 -27 -60 -68 -80 -202 -101 -228 -35 -469 -48 -1009 -53
-551 -6 -861 3 -1161 33 -254 25 -341 50 -384 108 -20 26 -21 41 -21 284 0
278 12 417 51 602 34 159 59 247 109 375 81 212 142 320 385 690 98 149 196
305 219 347 46 87 91 212 91 256 0 36 7 43 39 38 14 -2 254 -5 532 -5z m-1214
-2866 c313 -48 811 -70 1378 -61 526 7 950 37 1084 76 l31 9 -2 -1701 -3
-1700 -81 -34 c-181 -75 -524 -142 -843 -165 -205 -15 -714 -6 -901 15 -309
35 -624 109 -757 178 l-23 11 0 1699 c0 1040 4 1697 9 1693 5 -3 54 -12 108
-20z m43 -3639 c198 -63 478 -113 763 -136 193 -15 667 -13 853 5 334 32 614
92 816 176 39 16 72 29 74 29 12 0 2 -394 -12 -501 -49 -381 -214 -629 -418
-629 -78 0 -134 27 -188 92 -84 99 -104 116 -141 123 -59 11 -104 -18 -159
-102 -99 -150 -234 -217 -434 -215 -217 1 -357 72 -464 238 -34 52 -50 66 -81
76 -45 13 -111 -1 -134 -30 -8 -9 -32 -41 -55 -70 -61 -78 -108 -106 -190
-110 -62 -4 -74 -1 -129 28 -98 52 -174 150 -233 300 -59 149 -88 359 -88 632
l0 177 53 -24 c29 -13 104 -39 167 -59z"/>
<path d="M4981 5379 c-217 -42 -397 -180 -491 -374 -58 -118 -73 -196 -67
-340 3 -94 10 -137 30 -196 72 -212 232 -370 452 -445 70 -24 95 -28 200 -28
85 0 139 5 185 18 362 100 579 455 504 824 -64 318 -358 555 -683 551 -47 -1
-106 -5 -130 -10z m290 -175 c136 -40 266 -149 328 -276 32 -65 61 -177 61
-238 0 -61 -29 -173 -62 -240 -37 -76 -121 -169 -196 -217 -237 -153 -578 -82
-735 154 -112 168 -127 373 -40 552 35 73 139 181 210 219 56 29 137 56 198
66 51 7 179 -3 236 -20z"/>
<path d="M5049 5016 c-3 -3 -31 -8 -64 -11 -112 -10 -118 -19 -108 -160 7
-106 -1 -125 -49 -125 -16 0 -46 9 -68 20 -46 23 -80 14 -99 -27 -18 -40 -13
-63 23 -99 l34 -34 119 -2 c157 -2 175 0 196 21 38 37 39 161 1 192 -8 6 -14
29 -14 50 0 37 1 39 33 39 55 0 69 17 65 80 -3 53 -4 55 -33 58 -17 2 -33 1
-36 -2z"/>
<path d="M5164 4997 c-3 -8 -4 -91 -2 -184 3 -169 3 -170 32 -207 39 -52 84
-69 171 -64 125 6 195 64 195 159 0 40 -4 51 -24 64 -35 23 -71 10 -104 -39
-23 -34 -34 -42 -66 -44 -21 -2 -44 2 -50 8 -7 7 -13 71 -16 163 l-5 152 -63
3 c-47 2 -64 -1 -68 -11z"/>
<path d="M5326 4468 c-32 -45 -6 -98 48 -98 57 0 89 66 50 104 -24 24 -80 20
-98 -6z"/>
<path d="M4400 3839 c-85 -34 -131 -107 -137 -219 -4 -65 -1 -81 20 -123 l24
-47 -32 -20 c-46 -28 -119 -110 -146 -161 -98 -193 -47 -422 120 -536 82 -56
154 -78 261 -77 183 0 371 113 387 232 5 36 2 45 -25 72 -47 46 -79 41 -152
-24 -71 -63 -128 -86 -217 -86 -141 0 -232 86 -233 221 0 106 69 198 180 240
42 16 78 19 214 19 91 0 172 3 181 6 21 9 45 56 45 92 0 16 -9 41 -20 55 -20
26 -21 26 -201 29 l-181 3 -24 28 c-29 34 -31 80 -4 107 18 18 33 20 195 20
173 0 176 0 200 25 37 36 31 120 -9 147 -17 11 -417 8 -446 -3z"/>
<path d="M5725 3775 c-19 -18 -25 -35 -25 -67 0 -60 19 -82 101 -114 86 -34
155 -91 169 -142 14 -52 12 -98 -5 -132 -26 -51 -50 -60 -156 -60 -114 0 -125
-3 -144 -41 -31 -59 -7 -122 53 -138 62 -18 196 -13 257 8 101 36 148 86 179
191 56 187 -45 384 -246 483 -92 46 -147 49 -183 12z"/>
<path d="M5199 3634 c-60 -18 -133 -84 -166 -148 -70 -138 -19 -322 107 -386
49 -25 135 -35 183 -22 20 6 37 7 37 3 0 -24 -83 -117 -125 -138 -16 -9 -64
-19 -104 -23 -60 -6 -79 -12 -93 -30 -26 -32 -32 -66 -18 -101 19 -45 49 -60
119 -60 229 -1 397 188 432 488 9 72 9 113 0 166 -14 83 -61 179 -106 213 -69
52 -172 67 -266 38z m167 -208 c29 -29 34 -41 34 -81 0 -40 -5 -52 -34 -81
-38 -38 -67 -42 -120 -20 -44 18 -66 52 -66 99 0 73 40 116 109 117 36 0 49
-6 77 -34z"/>
<path d="M5756 2615 c-10 -28 -7 -290 5 -324 20 -56 97 -78 160 -45 53 27 84
124 59 189 -8 21 -16 26 -38 23 -26 -3 -27 -5 -29 -67 -2 -35 -8 -70 -14 -77
-14 -17 -55 -18 -66 -1 -4 6 -10 80 -13 162 l-5 150 -26 3 c-17 2 -29 -3 -33
-13z"/>
<path d="M4602 2568 c-32 -32 7 -80 49 -58 30 17 23 64 -11 68 -14 2 -31 -3
-38 -10z"/>
<path d="M4340 2433 c-57 -51 -50 -157 11 -188 106 -55 218 51 164 155 -34 66
-120 82 -175 33z m108 -55 c28 -28 7 -78 -33 -78 -12 0 -26 5 -33 12 -13 13
-16 60 -5 71 11 11 58 8 71 -5z"/>
<path d="M4782 2448 c-7 -7 -12 -37 -12 -68 0 -63 -11 -80 -52 -80 -35 0 -48
24 -48 90 0 54 -17 73 -49 53 -12 -8 -17 -33 -22 -113 -5 -99 -6 -104 -36
-130 -17 -15 -39 -32 -48 -37 -25 -14 -3 -53 30 -53 36 0 93 55 105 101 11 38
23 49 35 29 10 -17 68 -11 103 10 18 11 37 32 43 48 13 32 15 108 5 140 -8 24
-35 29 -54 10z"/>
<path d="M4952 2448 c-7 -7 -12 -45 -12 -99 0 -104 -11 -139 -51 -163 -23 -14
-29 -24 -27 -44 7 -62 87 -28 124 53 20 41 24 66 24 146 0 92 -8 119 -35 119
-6 0 -16 -5 -23 -12z"/>
<path d="M5101 2444 c-32 -23 -53 -77 -45 -120 8 -42 55 -84 95 -84 32 0 36
-7 15 -35 -9 -12 -31 -21 -62 -24 -47 -6 -49 -8 -49 -36 0 -28 2 -30 45 -33
57 -4 105 26 138 86 15 27 30 42 43 42 11 0 29 5 40 10 15 9 23 7 36 -5 12
-13 27 -15 62 -11 58 8 84 8 142 0 42 -5 50 -3 80 24 31 28 34 35 37 104 3 60
1 77 -13 88 -30 25 -49 0 -55 -68 -5 -66 -17 -86 -46 -80 -15 3 -20 14 -22 60
-3 61 -19 84 -52 73 -16 -5 -20 -15 -20 -48 0 -52 -24 -89 -53 -85 -20 3 -23
11 -27 72 -4 50 -10 72 -22 79 -25 17 -48 -9 -48 -54 0 -53 -16 -89 -39 -89
-15 0 -20 10 -25 45 -10 64 -47 105 -95 105 -20 0 -47 -7 -60 -16z m80 -71
c14 -39 8 -58 -21 -58 -31 0 -51 45 -30 69 19 24 39 19 51 -11z"/>
<path d="M4748 2179 c-26 -15 -23 -54 6 -67 43 -19 84 5 70 42 -3 7 -16 18
-30 25 -29 13 -25 13 -46 0z"/>
<path d="M5836 2177 c-14 -10 -17 -21 -12 -41 6 -24 11 -27 43 -24 21 2 41 10
47 21 24 39 -37 74 -78 44z"/>
</g>
</svg>
