<?xml version="1.0" standalone="no"?>
<!DOCTYPE svg PUBLIC "-//W3C//DTD SVG 20010904//EN"
 "http://www.w3.org/TR/2001/REC-SVG-20010904/DTD/svg10.dtd">
<svg version="1.0" xmlns="http://www.w3.org/2000/svg"
 width="1024.000000pt" height="1024.000000pt" viewBox="0 0 1024.000000 1024.000000"
 preserveAspectRatio="xMidYMid meet">

<g transform="translate(0.000000,1024.000000) scale(0.100000,-0.100000)"
fill="#fff" stroke="none">
<path d="M3725 8810 c-188 -50 -332 -158 -428 -321 -76 -130 -80 -154 -86
-524 -5 -296 -8 -334 -25 -365 -41 -78 -89 -112 -212 -148 -219 -66 -359 -271
-342 -500 14 -179 140 -341 315 -404 40 -14 92 -22 166 -26 l108 -5 -6 -66
c-10 -117 -25 -580 -25 -771 0 -381 44 -620 166 -910 205 -487 673 -914 1194
-1089 113 -37 115 -39 113 -67 -3 -36 -68 -572 -133 -1094 -61 -493 -66 -555
-50 -650 17 -103 43 -168 102 -256 90 -135 233 -231 409 -275 117 -30 319 -24
431 13 218 72 387 250 442 464 26 102 19 217 -48 760 -106 852 -126 1019 -126
1040 0 16 12 24 58 38 318 96 580 250 821 482 311 298 507 675 577 1109 27
164 26 765 -1 1178 l-6 97 75 0 c214 0 379 98 463 276 34 71 38 89 41 175 4
80 0 109 -17 162 -56 166 -159 261 -357 327 -93 31 -142 67 -173 130 -29 57
-31 79 -32 317 0 284 -11 401 -43 486 -71 188 -228 336 -431 405 l-80 27
-1395 2 c-1333 2 -1398 1 -1465 -17z m2795 -201 c188 -30 350 -182 395 -370
11 -49 15 -128 15 -329 0 -294 6 -337 62 -442 54 -102 171 -189 294 -219 93
-23 152 -66 188 -138 66 -129 25 -264 -101 -338 -36 -21 -63 -27 -146 -33
-124 -10 -3866 -10 -4062 0 -158 7 -197 20 -255 86 -46 53 -60 93 -60 171 0
57 5 76 30 120 40 69 82 100 187 132 48 15 102 35 119 44 47 24 129 102 163
155 63 98 64 108 71 457 6 263 10 330 24 375 58 181 206 307 391 330 96 12
2609 12 2685 -1z m413 -2226 c24 -514 29 -809 18 -950 -21 -269 -66 -434 -181
-668 -90 -182 -176 -301 -330 -455 -143 -143 -265 -234 -430 -318 -223 -115
-421 -171 -690 -194 -316 -27 -624 34 -925 183 -187 92 -302 176 -471 344
-163 163 -253 288 -344 478 -122 257 -166 453 -177 792 -5 172 8 633 23 843
l7 82 1747 0 1747 0 6 -137z m-1968 -2793 c72 -12 376 -13 458 -2 43 7 57 6
57 -4 0 -12 41 -347 96 -779 107 -854 109 -881 63 -999 -30 -77 -117 -172
-197 -214 -158 -84 -374 -86 -526 -4 -110 60 -201 186 -228 314 -14 65 -12 80
52 603 36 296 51 412 111 913 19 150 25 182 38 182 9 0 43 -5 76 -10z"/>
<path d="M4232 6299 c-258 -50 -399 -339 -285 -581 93 -196 331 -282 529 -189
259 121 318 442 119 650 -100 105 -227 147 -363 120z"/>
<path d="M5960 6299 c-116 -23 -225 -110 -282 -226 -31 -64 -33 -74 -33 -173
0 -97 2 -110 32 -172 57 -121 142 -190 274 -224 281 -72 555 201 485 482 -40
163 -165 284 -325 314 -62 11 -88 11 -151 -1z"/>
<path d="M5970 5052 c-35 -6 -50 -18 -118 -102 -135 -168 -305 -276 -497 -317
-111 -24 -316 -13 -425 22 -192 62 -296 138 -481 353 -32 38 -40 42 -83 42
-58 0 -101 -21 -121 -60 -35 -68 -7 -135 109 -257 175 -186 383 -303 620 -348
103 -20 326 -21 426 -1 200 38 357 117 531 268 63 54 157 165 183 216 47 92
-38 200 -144 184z"/>
<path d="M5233 2948 c-226 -195 -397 -356 -409 -384 -33 -79 -8 -168 59 -212
l41 -27 240 0 c225 0 243 1 276 21 94 55 110 185 32 267 -49 52 -78 61 -205
67 l-118 5 97 85 c88 78 124 121 124 150 0 20 -49 60 -74 60 -14 0 -42 -14
-63 -32z m135 -414 c12 -8 22 -26 22 -38 0 -45 -21 -51 -199 -53 -206 -2 -235
3 -239 41 -2 16 4 36 14 47 16 17 33 19 198 19 148 0 186 -3 204 -16z"/>
<path d="M4894 2247 c-3 -8 -4 -45 -2 -83 l3 -69 43 0 44 0 33 -111 c57 -186
73 -222 107 -240 36 -19 78 -11 106 19 11 12 41 88 67 172 46 147 55 166 85
164 50 -4 50 -3 50 81 l0 80 -265 0 c-214 0 -267 -3 -271 -13z"/>
</g>
</svg>
