<?xml version="1.0" standalone="no"?>
<!DOCTYPE svg PUBLIC "-//W3C//DTD SVG 20010904//EN"
 "http://www.w3.org/TR/2001/REC-SVG-20010904/DTD/svg10.dtd">
<svg version="1.0" xmlns="http://www.w3.org/2000/svg"
 width="1024.000000pt" height="1024.000000pt" viewBox="0 0 1024.000000 1024.000000"
 preserveAspectRatio="xMidYMid meet">

<g transform="translate(0.000000,1024.000000) scale(0.100000,-0.100000)"
fill="#fff" stroke="none">
<path d="M4447 9439 c-124 -30 -229 -135 -262 -267 -13 -49 -15 -107 -13 -292
l3 -230 27 -26 c21 -22 36 -27 78 -28 l52 -1 -6 -50 c-3 -27 -6 -58 -6 -67 0
-13 -8 -18 -30 -18 -100 0 -150 -112 -81 -181 22 -21 39 -29 65 -29 35 0 36
-1 36 -38 0 -58 -45 -138 -186 -327 -142 -191 -210 -302 -294 -478 -147 -311
-224 -643 -237 -1032 -7 -206 7 -275 87 -437 39 -78 50 -110 46 -132 -3 -15
-29 -76 -57 -133 -95 -199 -87 1 -89 -2098 -3 -1694 -1 -1858 14 -1950 62
-370 179 -581 374 -677 63 -31 72 -33 177 -33 108 0 113 1 187 38 80 39 148
103 191 179 12 21 24 38 27 38 3 -1 23 -30 45 -66 79 -129 203 -218 360 -259
82 -22 252 -22 335 0 157 40 301 143 370 263 19 34 38 62 41 62 3 0 13 -16 22
-36 21 -43 100 -129 147 -159 19 -12 63 -32 97 -45 53 -19 77 -22 155 -18 81
3 102 8 161 37 184 91 317 342 368 692 9 64 11 522 10 1939 -2 2096 6 1900
-87 2101 -30 64 -54 127 -54 141 0 13 22 69 49 124 79 160 86 193 85 384 -2
311 -68 664 -173 928 -91 230 -187 395 -374 646 -117 155 -170 247 -183 314
-6 31 -5 32 26 32 61 0 110 46 110 105 0 62 -47 105 -115 105 l-35 0 0 68 0
67 52 1 c45 1 55 5 80 33 l29 33 -3 261 c-3 251 -4 264 -26 309 -37 75 -105
143 -180 180 l-67 33 -655 2 c-363 1 -672 -3 -693 -8z m1293 -209 c47 -13 99
-68 111 -116 4 -22 9 -96 9 -166 l0 -128 -735 0 -735 0 0 147 c0 138 1 149 25
188 16 28 39 50 67 64 42 21 52 21 633 21 356 0 604 -4 625 -10z m-38 -696 c1
-36 1 -68 -1 -70 -2 -2 -265 -4 -583 -4 l-578 0 0 70 0 70 579 0 579 0 4 -66z
m12 -300 c3 -9 6 -30 6 -47 0 -94 47 -191 168 -353 209 -281 319 -473 404
-704 84 -230 133 -482 145 -746 7 -183 2 -209 -75 -366 l-57 -117 -1187 0
c-1007 -1 -1188 1 -1188 13 0 8 -26 65 -57 127 l-58 113 1 195 c2 353 74 675
218 976 79 165 150 280 287 461 156 208 187 270 214 427 l6 37 583 0 c523 0
584 -2 590 -16z m662 -2635 c43 -87 73 -190 74 -251 l0 -28 -1330 0 c-1139 0
-1330 2 -1330 14 0 54 34 175 70 247 23 46 47 90 52 97 8 9 263 12 1214 12
l1204 0 46 -91z m84 -1829 l0 -1340 -1335 0 -1335 0 0 1340 0 1340 1335 0
1335 0 0 -1340z m7 -1762 c-10 -322 -49 -532 -129 -691 -35 -71 -99 -142 -150
-168 -48 -24 -130 -25 -183 0 -72 33 -121 97 -183 243 -27 63 -70 91 -134 85
-72 -6 -93 -26 -147 -140 -62 -132 -125 -203 -226 -253 -61 -30 -87 -37 -157
-41 -208 -13 -348 75 -447 279 -27 57 -61 114 -74 127 -30 28 -92 37 -140 22
-40 -13 -58 -38 -117 -160 -60 -122 -137 -181 -237 -181 -132 1 -229 116 -298
355 -42 145 -56 263 -62 513 l-6 232 1348 0 1348 0 -6 -222z"/>
<path d="M5005 5040 c-262 -41 -456 -181 -571 -415 -60 -122 -76 -195 -77
-335 0 -142 19 -224 78 -345 98 -202 277 -349 494 -407 102 -27 278 -29 376
-4 325 84 548 338 587 669 36 309 -131 613 -418 762 -125 64 -327 96 -469 75z
m239 -185 c202 -38 393 -209 454 -405 27 -87 23 -266 -7 -353 -29 -85 -107
-203 -169 -257 -116 -100 -294 -159 -436 -145 -304 29 -536 264 -553 560 -10
171 47 318 171 440 149 148 328 201 540 160z"/>
<path d="M4955 4629 c-113 -27 -115 -31 -115 -191 l0 -131 -52 6 c-29 4 -78
13 -108 21 -30 8 -58 12 -62 10 -12 -8 -9 -140 3 -167 19 -41 48 -47 245 -47
183 0 185 0 209 25 21 20 25 34 25 82 0 69 -5 78 -53 98 -37 15 -37 16 -37 75
l0 59 35 7 c58 11 85 39 85 88 0 88 -32 100 -175 65z"/>
<path d="M5201 4626 c-23 -24 -23 -29 -22 -227 2 -223 7 -245 64 -279 26 -17
51 -20 138 -20 91 0 112 3 149 23 75 40 116 156 74 215 -33 47 -144 19 -144
-38 0 -25 -29 -40 -74 -40 l-36 0 0 170 c0 168 0 171 -25 195 -33 34 -93 34
-124 1z"/>
<path d="M5361 4024 c-39 -50 -19 -116 39 -129 60 -13 109 45 89 105 -20 56
-92 70 -128 24z"/>
<path d="M5108 3415 c-119 -45 -179 -166 -144 -289 24 -81 54 -110 175 -168
58 -27 116 -59 129 -71 43 -39 19 -107 -44 -123 -42 -11 -103 13 -122 47 -35
62 -32 61 -87 43 -74 -24 -87 -40 -74 -89 15 -55 51 -99 107 -132 43 -26 56
-28 147 -28 83 0 107 4 140 22 87 47 129 117 129 218 1 124 -50 185 -207 251
-103 42 -127 62 -127 103 0 88 130 92 162 6 12 -35 15 -37 50 -32 20 3 54 13
75 23 34 17 38 22 35 54 -4 56 -50 120 -105 149 -60 30 -181 39 -239 16z"/>
<path d="M4402 3404 l-22 -15 0 -374 c0 -326 2 -376 16 -389 13 -14 47 -16
213 -16 217 0 220 1 235 63 8 36 -10 103 -30 111 -9 3 -72 6 -140 6 l-124 0 0
70 0 70 114 0 c107 0 116 1 130 22 18 25 21 100 6 129 -10 17 -22 19 -130 19
l-120 0 0 70 0 70 128 0 c154 0 162 5 162 92 0 87 -2 88 -226 88 -155 0 -194
-3 -212 -16z"/>
<path d="M5610 3413 c-39 -14 -40 -26 -40 -403 0 -343 1 -368 18 -383 16 -15
46 -17 215 -17 184 0 198 1 217 20 15 15 20 33 20 70 0 82 -14 90 -165 90
l-125 0 0 295 c0 282 -1 296 -20 315 -20 20 -83 26 -120 13z"/>
</g>
</svg>
