<?xml version="1.0" standalone="no"?>
<!DOCTYPE svg PUBLIC "-//W3C//DTD SVG 20010904//EN"
 "http://www.w3.org/TR/2001/REC-SVG-20010904/DTD/svg10.dtd">
<svg version="1.0" xmlns="http://www.w3.org/2000/svg"
 width="1024.000000pt" height="1024.000000pt" viewBox="0 0 1024.000000 1024.000000"
 preserveAspectRatio="xMidYMid meet">

<g transform="translate(0.000000,1024.000000) scale(0.100000,-0.100000)"
fill="#fff" stroke="none">
<path d="M4855 9083 c-703 -14 -1260 -68 -1865 -179 -475 -87 -899 -264 -1030
-429 -74 -93 -84 -137 -99 -440 -6 -115 -16 -298 -21 -405 -11 -215 -5 -283
32 -357 26 -52 118 -141 186 -179 26 -15 63 -37 83 -50 l36 -22 7 -109 c3 -59
11 -162 16 -228 6 -66 28 -343 50 -615 22 -272 49 -603 60 -735 36 -440 50
-608 65 -815 9 -113 17 -216 20 -230 3 -14 9 -90 15 -170 33 -471 142 -1699
155 -1753 30 -116 78 -199 174 -300 104 -108 206 -184 351 -260 366 -193 850
-308 1520 -361 36 -3 209 -9 385 -12 465 -10 832 14 1214 77 349 58 635 141
869 254 165 80 293 167 397 270 69 68 89 96 132 185 61 124 68 155 88 388 9
97 22 254 30 347 9 94 31 357 50 585 19 228 39 462 44 520 6 58 13 134 16 170
12 143 87 1040 105 1260 11 129 26 316 35 415 19 227 17 210 57 707 l33 417
69 38 c138 76 220 154 251 243 18 50 19 186 5 428 -5 92 -14 253 -20 358 -11
207 -25 274 -70 339 -137 196 -492 353 -1060 468 -519 106 -1025 157 -1756
177 -198 6 -398 9 -445 8 -46 -2 -129 -4 -184 -5z m1175 -237 c576 -40 998
-98 1359 -187 467 -115 761 -266 761 -392 0 -115 -215 -229 -636 -337 -621
-160 -1844 -255 -2829 -221 -1258 43 -2237 216 -2543 449 -155 118 -19 270
363 410 149 54 393 113 670 161 391 69 675 95 1435 135 182 10 1212 -4 1420
-18z m-3899 -911 c487 -285 1714 -451 3204 -432 1269 16 2249 164 2722 411 58
31 109 56 113 56 11 0 32 -553 22 -580 -23 -59 -136 -135 -289 -194 -698 -270
-2263 -396 -3783 -305 -1116 66 -1956 268 -2075 500 -12 22 -13 56 -5 190 5
90 10 203 11 252 2 89 8 137 16 137 3 0 32 -16 64 -35z m524 -1050 c404 -97
844 -157 1460 -197 268 -17 1665 -18 1965 0 577 33 1124 108 1540 212 85 21
168 43 183 49 50 19 60 15 53 -21 -3 -18 -12 -121 -21 -228 -31 -404 -45 -573
-70 -860 -14 -162 -34 -407 -45 -545 -11 -137 -31 -380 -45 -540 -14 -159 -27
-321 -30 -360 -3 -38 -15 -169 -25 -290 -11 -121 -29 -330 -40 -465 -11 -135
-27 -319 -35 -410 -8 -91 -26 -300 -40 -465 -14 -165 -30 -320 -36 -345 -37
-157 -212 -335 -440 -451 -339 -171 -878 -285 -1507 -320 -258 -14 -789 -6
-1007 16 -884 88 -1489 312 -1696 628 -68 105 -61 55 -134 952 -19 237 -51
624 -70 860 -20 237 -44 543 -55 680 -11 138 -24 300 -30 360 -5 61 -17 200
-25 310 -8 110 -24 308 -35 440 -10 132 -33 409 -49 615 -17 206 -33 389 -36
406 -3 17 -3 33 0 36 3 3 34 -3 68 -14 34 -11 125 -35 202 -53z"/>
<path d="M4530 8690 c-832 -36 -1489 -117 -1871 -231 -204 -60 -249 -92 -249
-173 0 -28 4 -57 9 -65 14 -22 61 -16 173 23 535 185 1961 290 3253 237 762
-31 1437 -121 1806 -241 108 -35 154 -38 169 -11 16 31 12 96 -7 119 -58 67
-347 152 -728 216 -330 55 -647 88 -1130 116 -231 14 -1184 20 -1425 10z"/>
<path d="M4830 6525 c-490 -67 -983 -342 -1307 -728 -255 -304 -414 -658 -469
-1043 -20 -145 -20 -438 1 -581 34 -225 90 -419 175 -600 309 -656 923 -1103
1640 -1193 111 -14 404 -13 522 1 683 81 1302 529 1608 1164 199 413 254 931
148 1390 -50 215 -167 490 -285 670 -326 495 -877 842 -1463 920 -130 18 -441
18 -570 0z m575 -175 c332 -57 625 -179 866 -360 104 -79 306 -280 380 -380
112 -150 208 -336 278 -535 79 -223 105 -403 98 -675 -7 -274 -43 -442 -144
-686 -146 -348 -376 -632 -693 -856 -207 -145 -491 -257 -775 -305 -122 -21
-451 -23 -570 -4 -381 60 -710 213 -979 455 -582 523 -804 1317 -570 2041 132
408 405 767 773 1014 212 143 544 262 837 300 133 17 373 13 499 -9z"/>
<path d="M5001 6280 c-136 -19 -277 -76 -378 -151 -29 -21 -56 -39 -60 -39 -5
0 -17 19 -28 43 -18 38 -23 42 -56 41 -102 -3 -539 -272 -539 -333 0 -19 215
-281 231 -281 15 0 97 58 102 72 5 16 -22 63 -80 140 l-43 56 68 45 c78 52
244 137 267 137 14 0 14 -3 3 -19 -41 -58 -106 -124 -149 -152 -72 -46 -77
-60 -36 -106 34 -38 34 -39 26 -103 -6 -55 -12 -68 -35 -85 -144 -105 -230
-195 -335 -348 -73 -106 -117 -198 -158 -332 -47 -153 -56 -223 -55 -410 1
-315 66 -537 230 -781 101 -151 295 -329 463 -427 134 -78 329 -144 500 -168
115 -16 358 -6 481 20 463 99 858 454 1013 911 108 318 89 695 -51 1009 -86
192 -249 399 -391 496 -67 46 -69 48 -74 98 -4 28 -4 53 -2 55 3 3 22 -7 43
-22 21 -14 43 -26 48 -26 11 0 174 198 209 252 9 16 15 34 12 41 -16 43 -387
255 -477 273 -32 7 -70 -16 -70 -42 0 -27 -23 -24 -75 11 -74 49 -143 78 -244
104 -97 24 -266 34 -360 21z m351 -188 c226 -68 388 -244 418 -457 21 -147
-29 -297 -140 -418 -72 -78 -146 -126 -255 -163 -74 -26 -92 -28 -240 -28
-179 -1 -223 8 -350 72 -135 67 -261 227 -294 372 -64 279 157 565 494 640 69
16 292 4 367 -18z m463 -92 c26 -11 70 -35 98 -53 29 -19 64 -41 80 -50 15
-10 27 -21 27 -25 0 -4 -13 -23 -29 -42 l-28 -34 -60 39 c-42 28 -75 61 -107
108 -25 37 -46 69 -46 72 0 9 18 5 65 -15z m-1436 -689 c86 -202 267 -360 481
-420 436 -121 872 61 1020 427 14 35 30 62 35 60 23 -8 168 -174 219 -252 206
-309 261 -712 144 -1061 -139 -417 -515 -747 -936 -820 -48 -9 -146 -15 -226
-15 -263 0 -475 69 -702 228 -402 283 -596 813 -473 1296 41 163 99 285 197
416 49 67 200 226 207 218 2 -2 17 -36 34 -77z"/>
<path d="M5100 5951 c-134 -40 -196 -68 -230 -108 -25 -28 -30 -42 -30 -87 0
-69 20 -94 122 -154 83 -48 115 -85 87 -103 -8 -5 -79 -8 -161 -7 -131 3 -150
5 -175 24 -24 18 -29 30 -34 89 -4 50 -11 72 -24 81 -58 43 -115 -21 -115
-128 1 -92 52 -169 137 -205 47 -19 253 -28 343 -14 93 15 144 46 171 104 24
54 24 108 -1 157 -22 44 -61 76 -137 114 -82 41 -70 56 72 91 118 29 135 42
135 105 0 79 -16 83 -160 41z"/>
<path d="M5331 5906 c-12 -5 -24 -19 -27 -31 -3 -12 -4 -123 -2 -246 4 -269 6
-275 90 -281 98 -6 184 7 227 35 48 32 84 102 89 177 4 61 -8 84 -48 93 -44
10 -71 -12 -90 -76 -24 -78 -35 -89 -84 -85 l-41 3 -5 205 -5 205 -41 5 c-23
4 -51 2 -63 -4z"/>
<path d="M5450 5277 c-38 -19 -48 -61 -23 -95 41 -55 133 -30 133 37 0 50 -62
83 -110 58z"/>
<path d="M4504 4669 c-83 -24 -124 -110 -124 -260 0 -162 35 -243 117 -270 48
-16 124 -7 160 19 54 38 68 82 71 223 4 142 -6 193 -45 240 -45 53 -106 69
-179 48z m85 -118 c27 -27 35 -77 29 -182 -6 -96 -22 -129 -62 -129 -34 0 -48
15 -57 61 -12 62 -11 182 1 216 20 52 57 66 89 34z"/>
<path d="M4904 4669 c-41 -12 -90 -68 -103 -117 -13 -48 -17 -191 -7 -259 17
-117 106 -180 220 -159 41 8 90 46 111 86 14 27 27 182 18 208 -4 8 -31 12
-90 12 l-84 0 3 -47 c3 -46 4 -48 36 -51 33 -3 34 -4 27 -40 -13 -72 -66 -95
-104 -46 -19 24 -21 40 -21 148 0 137 10 166 59 166 30 0 55 -21 65 -57 6 -18
12 -20 49 -16 57 7 63 15 48 62 -29 99 -118 142 -227 110z"/>
<path d="M4010 4648 c0 -13 26 -84 57 -158 54 -129 57 -140 62 -245 l6 -110
37 -3 c71 -6 78 5 78 118 0 100 0 100 60 240 33 77 60 149 60 161 0 18 -5 20
-56 17 l-55 -3 -25 -65 c-50 -128 -43 -125 -74 -33 -15 44 -31 86 -34 92 -4 6
-32 11 -62 11 -49 0 -54 -2 -54 -22z"/>
<path d="M5204 4644 c-12 -48 5 -393 21 -424 45 -87 154 -114 242 -60 63 38
66 55 64 333 l-1 178 -52 -3 -53 -3 -3 -199 c-1 -127 -6 -204 -13 -213 -14
-17 -65 -17 -76 0 -4 6 -10 102 -13 212 l-5 200 -52 3 c-50 3 -53 2 -59 -24z"/>
<path d="M5600 4405 l0 -264 34 -6 c69 -13 71 -11 74 103 3 129 18 134 61 22
17 -43 31 -83 31 -88 0 -21 34 -35 77 -33 26 1 49 3 51 5 3 4 -29 95 -69 193
-12 30 -11 34 13 60 72 75 61 195 -21 250 -30 20 -46 23 -142 23 l-109 0 0
-265z m178 149 c48 -34 17 -114 -45 -114 -21 0 -23 4 -23 58 0 32 3 62 7 65
11 12 37 8 61 -9z"/>
<path d="M5944 4656 c-3 -8 -4 -31 -2 -52 3 -38 4 -39 46 -42 l42 -3 0 -208
c0 -208 0 -209 23 -215 43 -11 76 -6 87 13 6 12 10 100 10 215 l0 196 40 0
c47 0 64 23 54 75 l-6 35 -144 0 c-115 0 -146 -3 -150 -14z"/>
<path d="M5310 3960 c-6 -12 -10 -63 -9 -118 l2 -97 -109 -3 c-88 -2 -111 -6
-121 -19 -17 -23 -17 -137 0 -151 7 -6 62 -13 123 -14 l109 -3 2 -104 c2 -72
7 -107 15 -113 22 -14 112 -9 136 8 20 14 22 23 22 115 l0 99 101 0 c134 0
139 3 139 90 0 87 -5 90 -139 90 l-101 0 0 108 c0 71 -4 112 -12 120 -7 7 -40
12 -80 12 -58 0 -69 -3 -78 -20z"/>
<path d="M6245 5768 c-33 -35 -89 -98 -123 -140 l-63 -77 41 -41 c22 -22 49
-40 59 -40 11 0 51 34 96 83 l76 82 25 -30 c56 -65 184 -241 184 -251 0 -6
-16 -19 -36 -30 -33 -18 -36 -18 -47 -2 -102 148 -111 158 -133 158 -26 0 -94
-55 -94 -76 0 -8 28 -51 61 -96 34 -46 75 -107 91 -135 17 -29 37 -53 45 -53
18 0 284 134 314 159 l23 18 -69 109 c-122 191 -326 424 -371 424 -10 0 -45
-28 -79 -62z"/>
<path d="M3784 5718 c-137 -142 -336 -442 -320 -483 3 -8 45 -33 93 -56 48
-23 119 -57 157 -75 38 -19 74 -34 80 -34 14 1 78 111 72 125 -2 6 -49 35
-105 65 -56 30 -100 58 -99 62 8 21 162 220 175 225 9 3 27 -6 44 -23 l28 -29
-59 -75 c-33 -41 -59 -79 -57 -85 4 -12 95 -75 109 -75 10 0 26 17 137 150 39
47 71 90 71 95 0 17 -244 266 -260 265 -9 0 -38 -24 -66 -52z"/>
<path d="M6675 5151 c-207 -89 -227 -100 -219 -124 18 -56 45 -107 56 -107 7
0 49 16 93 35 93 41 101 42 115 14 28 -51 83 -279 71 -292 -4 -4 -25 -8 -46
-10 l-39 -2 -17 104 c-10 57 -22 108 -28 114 -12 12 -131 -22 -138 -39 -2 -6
3 -37 12 -68 9 -30 22 -100 29 -153 l12 -98 171 -3 c226 -3 221 -7 203 139
-22 184 -121 528 -155 535 -5 1 -59 -19 -120 -45z"/>
<path d="M3392 5093 c-32 -77 -70 -211 -87 -308 -16 -98 -24 -273 -13 -291 8
-13 333 -29 361 -18 23 8 25 129 2 137 -8 4 -59 9 -115 13 -55 4 -102 10 -105
13 -4 8 41 239 55 275 11 29 26 32 65 14 30 -13 30 -10 -5 -126 -12 -41 -19
-79 -17 -85 3 -7 33 -18 68 -26 75 -15 81 -10 98 73 6 28 23 91 38 139 23 76
24 90 12 102 -18 17 -296 135 -319 135 -11 0 -25 -17 -38 -47z"/>
<path d="M6574 4437 c-3 -8 -4 -41 -2 -73 l3 -59 110 -10 110 -10 -2 -56 c-3
-62 -47 -247 -63 -263 -6 -6 -21 -4 -44 6 l-33 16 23 82 c28 96 30 135 8 144
-9 3 -39 9 -68 12 l-52 6 -31 -123 c-18 -68 -38 -143 -45 -167 -11 -37 -10
-44 2 -52 40 -25 279 -113 309 -114 l35 -1 37 115 c57 175 107 502 82 536 -5
7 -76 14 -190 18 -155 7 -184 5 -189 -7z"/>
<path d="M3322 4383 c-36 -7 -42 -32 -31 -129 21 -188 97 -473 134 -504 9 -7
58 7 171 51 88 34 164 65 171 71 9 7 7 23 -9 66 -11 32 -24 60 -28 65 -3 4
-53 -8 -109 -28 -56 -20 -106 -33 -111 -30 -9 6 -70 252 -70 285 0 17 6 20 44
20 50 0 49 2 61 -116 10 -93 17 -98 113 -75 53 13 54 14 48 45 -3 17 -13 85
-21 150 -9 66 -18 123 -21 128 -5 8 -300 9 -342 1z"/>
<path d="M6443 3818 c-6 -7 -22 -34 -36 -60 l-26 -47 32 -24 c18 -13 58 -38
89 -56 32 -18 60 -36 63 -41 6 -9 -90 -148 -146 -213 l-34 -39 -28 30 -28 29
56 68 c77 93 79 98 52 122 -26 23 -83 63 -90 63 -3 0 -29 -30 -58 -67 -29 -38
-77 -94 -107 -125 l-54 -57 33 -43 c61 -77 190 -223 205 -231 21 -12 45 5 115
84 96 108 223 290 279 398 21 42 21 44 3 62 -15 14 -293 159 -306 159 -3 0 -9
-6 -14 -12z"/>
<path d="M3643 3734 c-81 -41 -154 -81 -160 -87 -10 -10 -7 -23 13 -62 45 -87
150 -236 237 -340 111 -132 140 -159 164 -151 17 6 234 254 241 277 5 13 -78
88 -98 89 -8 0 -47 -33 -87 -72 l-73 -73 -25 25 c-30 31 -139 174 -156 208
-12 22 -11 26 10 43 13 10 28 19 35 19 6 0 33 -34 61 -76 75 -113 73 -112 134
-64 28 22 51 46 51 54 0 7 -15 33 -33 57 -28 38 -85 126 -134 207 -7 12 -18
22 -22 22 -5 0 -76 -34 -158 -76z"/>
<path d="M6010 3304 c-25 -20 -46 -39 -48 -44 -2 -4 24 -45 57 -91 34 -46 61
-89 61 -96 0 -22 -231 -163 -267 -163 -10 0 -33 43 -33 63 0 7 39 32 85 56
113 59 115 62 83 119 -15 26 -33 51 -41 56 -9 6 -59 -14 -161 -65 -144 -71
-148 -74 -142 -101 5 -27 106 -318 113 -328 13 -16 282 112 401 192 107 72
192 139 192 152 0 6 -38 55 -83 108 -46 53 -98 115 -116 137 -18 23 -38 41
-44 40 -7 0 -32 -16 -57 -35z"/>
<path d="M4071 3170 c-69 -85 -111 -146 -108 -154 23 -60 518 -323 570 -303 8
3 38 70 66 149 29 78 57 154 62 167 13 30 6 36 -63 60 -65 22 -65 23 -98 -59
-41 -103 -53 -130 -57 -130 -8 0 -191 94 -230 119 -49 30 -53 48 -19 80 l23
22 84 -51 c46 -27 92 -50 101 -50 16 0 68 84 68 109 0 13 -253 181 -272 181
-8 0 -65 -63 -127 -140z"/>
<path d="M5425 3030 c-49 -9 -117 -21 -150 -26 l-60 -9 0 -62 c0 -34 5 -67 11
-73 7 -7 34 -6 90 5 43 8 84 15 91 15 13 0 38 -78 29 -87 -26 -26 -337 -41
-490 -24 -62 7 -118 16 -124 20 -6 4 -8 19 -3 41 l7 35 75 -4 c41 -3 110 -5
154 -5 l80 -1 3 58 c2 32 -2 64 -7 71 -7 8 -50 15 -113 19 -57 3 -143 14 -192
23 -86 16 -89 16 -100 -2 -9 -15 -94 -321 -96 -345 0 -8 93 -34 170 -49 102
-20 334 -29 464 -19 126 9 301 40 336 59 27 14 25 34 -15 199 -35 141 -49 182
-63 180 -4 -1 -47 -9 -97 -19z"/>
</g>
</svg>
